<?xml version="1.0" encoding="UTF-8"?>
<svg xmlns="http://www.w3.org/2000/svg" xmlns:xlink="http://www.w3.org/1999/xlink" width="30px" height="30px" viewBox="0 0 30 30" version="1.1">
<g id="surface1">
<path style=" stroke:none;fill-rule:nonzero;fill:rgb(99.607843%,99.607843%,99.607843%);fill-opacity:1;" d="M 0 0 C 9.898438 0 19.800781 0 30 0 C 30 9.898438 30 19.800781 30 30 C 20.101562 30 10.199219 30 0 30 C 0 20.101562 0 10.199219 0 0 Z M 0 0 "/>
<path style=" stroke:none;fill-rule:nonzero;fill:rgb(1.568628%,1.568628%,1.568628%);fill-opacity:1;" d="M 12.011719 5.632812 C 12.035156 5.632812 12.058594 5.632812 12.085938 5.632812 C 12.675781 5.636719 13.242188 5.671875 13.824219 5.789062 C 13.871094 5.796875 13.921875 5.808594 13.972656 5.816406 C 14.972656 5.992188 15.96875 6.402344 16.839844 6.921875 C 16.863281 6.933594 16.863281 6.933594 16.886719 6.949219 C 17.421875 7.261719 17.914062 7.640625 18.375 8.058594 C 18.402344 8.085938 18.433594 8.113281 18.464844 8.140625 C 18.664062 8.316406 18.859375 8.5 19.027344 8.703125 C 19.066406 8.746094 19.105469 8.789062 19.144531 8.832031 C 19.246094 8.945312 19.339844 9.0625 19.429688 9.179688 C 19.460938 9.222656 19.492188 9.261719 19.523438 9.300781 C 19.917969 9.804688 20.257812 10.355469 20.519531 10.941406 C 20.40625 10.941406 20.296875 10.941406 20.179688 10.941406 C 20.160156 10.898438 20.160156 10.898438 20.136719 10.855469 C 19.9375 10.464844 19.714844 10.09375 19.460938 9.738281 C 19.445312 9.71875 19.445312 9.71875 19.425781 9.695312 C 19.273438 9.480469 19.113281 9.277344 18.941406 9.078125 C 18.925781 9.0625 18.90625 9.042969 18.890625 9.023438 C 18.863281 8.992188 18.832031 8.960938 18.800781 8.925781 C 18.773438 8.894531 18.746094 8.867188 18.722656 8.835938 C 18.621094 8.722656 18.515625 8.613281 18.410156 8.507812 C 18.394531 8.492188 18.378906 8.476562 18.367188 8.464844 C 18.273438 8.371094 18.179688 8.285156 18.078125 8.199219 C 18.058594 8.179688 18.039062 8.164062 18.015625 8.144531 C 17.820312 7.972656 17.613281 7.816406 17.398438 7.660156 C 17.378906 7.644531 17.378906 7.644531 17.355469 7.628906 C 16.339844 6.878906 15.132812 6.375 13.898438 6.121094 C 13.878906 6.117188 13.859375 6.113281 13.839844 6.105469 C 11.988281 5.726562 9.992188 5.976562 7.160156 7.390625 C 6.789062 7.636719 6.429688 7.898438 6.101562 8.199219 C 6.0625 8.238281 6.019531 8.273438 5.980469 8.308594 C 5.886719 8.390625 5.804688 8.472656 5.71875 8.558594 C 5.664062 8.613281 5.609375 8.667969 5.554688 8.722656 C 5.429688 8.84375 5.3125 8.96875 5.203125 9.105469 C 5.164062 9.152344 5.125 9.203125 5.082031 9.25 C 4.164062 10.3125 3.542969 11.675781 3.238281 13.039062 C 3.234375 13.0625 3.230469 13.082031 3.226562 13.101562 C 3.144531 13.476562 3.101562 13.855469 3.0625 14.238281 C 3.0625 14.269531 3.058594 14.300781 3.054688 14.332031 C 3.042969 14.460938 3.035156 14.589844 3.035156 14.71875 C 3.035156 14.738281 3.035156 14.761719 3.035156 14.78125 C 3.035156 14.824219 3.035156 14.867188 3.035156 14.910156 C 3.035156 14.972656 3.035156 15.039062 3.035156 15.101562 C 3.03125 16.984375 3.691406 18.835938 5.152344 20.808594 C 5.179688 20.84375 5.210938 20.875 5.238281 20.910156 C 5.347656 21.042969 5.460938 21.167969 5.585938 21.285156 C 5.613281 21.308594 5.636719 21.335938 5.660156 21.359375 C 5.660156 21.375 5.660156 21.386719 5.660156 21.398438 C 5.671875 21.40625 5.683594 21.410156 5.695312 21.417969 C 5.738281 21.441406 5.765625 21.464844 5.800781 21.5 C 5.8125 21.511719 5.824219 21.523438 5.835938 21.535156 C 5.847656 21.546875 5.859375 21.558594 5.871094 21.570312 C 5.972656 21.671875 6.074219 21.769531 6.183594 21.855469 C 6.234375 21.894531 6.28125 21.933594 6.328125 21.976562 C 7.585938 23.0625 9.253906 23.773438 10.898438 23.960938 C 10.929688 23.964844 10.957031 23.96875 10.988281 23.972656 C 11.039062 23.980469 11.09375 23.984375 11.144531 23.992188 C 11.195312 23.996094 11.242188 24.003906 11.292969 24.011719 C 11.414062 24.027344 11.535156 24.023438 11.65625 24.023438 C 11.679688 24.023438 11.707031 24.023438 11.734375 24.023438 C 11.792969 24.023438 11.847656 24.023438 11.902344 24.023438 C 11.960938 24.023438 12.015625 24.023438 12.074219 24.023438 C 12.425781 24.027344 12.769531 24.019531 13.121094 23.980469 C 13.132812 23.976562 13.148438 23.976562 13.164062 23.976562 C 13.242188 23.964844 13.320312 23.957031 13.398438 23.945312 C 13.421875 23.941406 13.445312 23.9375 13.46875 23.933594 C 14.296875 23.808594 15.101562 23.5625 15.859375 23.21875 C 15.875 23.214844 15.890625 23.207031 15.90625 23.199219 C 16.730469 22.832031 17.488281 22.308594 18.152344 21.703125 C 18.183594 21.675781 18.214844 21.648438 18.246094 21.621094 C 18.355469 21.523438 18.460938 21.421875 18.5625 21.320312 C 18.578125 21.304688 18.589844 21.292969 18.605469 21.277344 C 18.695312 21.1875 18.777344 21.097656 18.859375 21 C 18.878906 20.976562 18.898438 20.957031 18.917969 20.933594 C 19.414062 20.363281 19.84375 19.722656 20.179688 19.039062 C 20.292969 19.039062 20.40625 19.039062 20.519531 19.039062 C 20.324219 19.484375 20.078125 19.902344 19.800781 20.300781 C 19.785156 20.320312 19.785156 20.320312 19.773438 20.335938 C 19.535156 20.683594 19.265625 21.007812 18.980469 21.320312 C 18.964844 21.339844 18.945312 21.355469 18.929688 21.375 C 18.753906 21.570312 18.578125 21.757812 18.378906 21.925781 C 18.332031 21.964844 18.289062 22.007812 18.242188 22.046875 C 17.734375 22.507812 17.15625 22.886719 16.558594 23.21875 C 16.546875 23.226562 16.53125 23.238281 16.515625 23.246094 C 16.117188 23.46875 15.691406 23.644531 15.261719 23.800781 C 15.242188 23.808594 15.21875 23.816406 15.199219 23.820312 C 14.253906 24.167969 13.238281 24.347656 12.230469 24.34375 C 12.160156 24.34375 12.085938 24.34375 12.015625 24.34375 C 11.546875 24.347656 11.085938 24.320312 10.628906 24.246094 C 10.601562 24.242188 10.601562 24.242188 10.578125 24.238281 C 10.289062 24.191406 10.003906 24.136719 9.71875 24.058594 C 9.691406 24.050781 9.691406 24.050781 9.660156 24.042969 C 9.117188 23.898438 8.589844 23.703125 8.078125 23.460938 C 8.058594 23.449219 8.039062 23.441406 8.015625 23.429688 C 7.457031 23.164062 6.933594 22.835938 6.441406 22.460938 C 6.429688 22.449219 6.417969 22.441406 6.40625 22.433594 C 6.273438 22.332031 6.144531 22.226562 6.015625 22.121094 C 6.007812 22.109375 5.996094 22.101562 5.988281 22.09375 C 5.789062 21.921875 5.601562 21.742188 5.414062 21.558594 C 5.382812 21.527344 5.351562 21.492188 5.316406 21.460938 C 5.207031 21.351562 5.101562 21.238281 5 21.121094 C 4.988281 21.105469 4.976562 21.09375 4.96875 21.082031 C 4.449219 20.464844 4.023438 19.796875 3.660156 19.078125 C 3.652344 19.0625 3.644531 19.046875 3.636719 19.03125 C 3.363281 18.488281 3.152344 17.898438 3.011719 17.304688 C 3 17.257812 2.988281 17.210938 2.976562 17.164062 C 2.894531 16.855469 2.84375 16.539062 2.800781 16.21875 C 2.796875 16.195312 2.792969 16.171875 2.789062 16.148438 C 2.738281 15.761719 2.734375 15.375 2.734375 14.984375 C 2.734375 14.957031 2.734375 14.933594 2.734375 14.90625 C 2.734375 14.457031 2.753906 14.007812 2.820312 13.566406 C 2.824219 13.550781 2.824219 13.539062 2.828125 13.523438 C 2.980469 12.53125 3.308594 11.59375 3.761719 10.699219 C 3.773438 10.671875 3.773438 10.671875 3.789062 10.644531 C 4.125 9.976562 4.570312 9.339844 5.074219 8.789062 C 5.101562 8.761719 5.125 8.734375 5.148438 8.707031 C 5.253906 8.582031 5.371094 8.464844 5.488281 8.347656 C 5.523438 8.3125 5.558594 8.277344 5.59375 8.238281 C 5.714844 8.117188 5.839844 8.003906 5.972656 7.898438 C 6.019531 7.859375 6.0625 7.820312 6.109375 7.78125 C 6.21875 7.679688 6.339844 7.589844 6.460938 7.5 C 6.472656 7.488281 6.484375 7.480469 6.5 7.46875 C 7.835938 6.472656 9.40625 5.867188 11.058594 5.679688 C 11.074219 5.679688 11.085938 5.675781 11.101562 5.675781 C 11.402344 5.636719 11.703125 5.632812 12.011719 5.632812 Z M 12.011719 5.632812 "/>
<path style=" stroke:none;fill-rule:nonzero;fill:rgb(0.784314%,0.784314%,0.784314%);fill-opacity:1;" d="M 12.660156 11.71875 C 13.050781 11.71875 13.4375 11.71875 13.839844 11.71875 C 13.839844 13.046875 13.839844 14.375 13.839844 15.738281 C 13.878906 15.667969 13.917969 15.59375 13.960938 15.519531 C 14.21875 15.195312 14.546875 14.972656 14.960938 14.898438 C 15.332031 14.875 15.699219 14.875 16 15.121094 C 16.1875 15.289062 16.304688 15.515625 16.324219 15.769531 C 16.324219 15.820312 16.324219 15.871094 16.324219 15.921875 C 16.324219 15.941406 16.324219 15.957031 16.324219 15.976562 C 16.324219 16.042969 16.324219 16.105469 16.324219 16.167969 C 16.324219 16.210938 16.324219 16.253906 16.324219 16.296875 C 16.324219 16.410156 16.324219 16.527344 16.324219 16.640625 C 16.324219 16.757812 16.320312 16.875 16.320312 16.992188 C 16.320312 17.222656 16.320312 17.449219 16.320312 17.679688 C 16.511719 17.679688 16.703125 17.679688 16.898438 17.679688 C 16.898438 17.851562 16.898438 18.023438 16.898438 18.199219 C 16.304688 18.199219 15.710938 18.199219 15.101562 18.199219 C 15.101562 18.027344 15.101562 17.855469 15.101562 17.679688 C 15.324219 17.679688 15.546875 17.679688 15.78125 17.679688 C 15.777344 17.464844 15.777344 17.25 15.773438 17.035156 C 15.773438 16.933594 15.773438 16.832031 15.773438 16.734375 C 15.773438 16.636719 15.773438 16.539062 15.769531 16.441406 C 15.769531 16.40625 15.769531 16.367188 15.769531 16.332031 C 15.769531 16.066406 15.761719 15.828125 15.578125 15.621094 C 15.402344 15.460938 15.191406 15.425781 14.957031 15.433594 C 14.628906 15.460938 14.332031 15.605469 14.105469 15.847656 C 13.964844 16.019531 13.875 16.21875 13.875 16.441406 C 13.875 16.460938 13.875 16.460938 13.871094 16.484375 C 13.871094 16.527344 13.871094 16.570312 13.871094 16.617188 C 13.871094 16.644531 13.871094 16.675781 13.871094 16.707031 C 13.871094 16.789062 13.867188 16.867188 13.867188 16.949219 C 13.867188 17.03125 13.867188 17.113281 13.863281 17.195312 C 13.863281 17.359375 13.863281 17.519531 13.859375 17.679688 C 14.050781 17.679688 14.242188 17.679688 14.441406 17.679688 C 14.441406 17.851562 14.441406 18.023438 14.441406 18.199219 C 13.847656 18.199219 13.253906 18.199219 12.640625 18.199219 C 12.640625 18.027344 12.640625 17.855469 12.640625 17.679688 C 12.859375 17.679688 13.074219 17.679688 13.300781 17.679688 C 13.300781 15.886719 13.300781 14.089844 13.300781 12.238281 C 13.089844 12.238281 12.878906 12.238281 12.660156 12.238281 C 12.660156 12.070312 12.660156 11.898438 12.660156 11.71875 Z M 12.660156 11.71875 "/>
<path style=" stroke:none;fill-rule:nonzero;fill:rgb(1.176471%,1.176471%,1.176471%);fill-opacity:1;" d="M 18.839844 16.019531 C 18.878906 16.0625 18.878906 16.0625 18.921875 16.121094 C 18.964844 16.148438 19.007812 16.171875 19.054688 16.195312 C 19.101562 16.21875 19.101562 16.21875 19.140625 16.25 C 19.179688 16.285156 19.179688 16.285156 19.238281 16.300781 C 19.238281 16.3125 19.238281 16.328125 19.238281 16.339844 C 19.449219 16.359375 19.65625 16.363281 19.867188 16.359375 C 19.898438 16.359375 19.929688 16.359375 19.964844 16.359375 C 20.042969 16.359375 20.121094 16.359375 20.199219 16.359375 C 20.199219 16.347656 20.199219 16.332031 20.199219 16.320312 C 20.226562 16.3125 20.25 16.304688 20.273438 16.296875 C 20.382812 16.265625 20.472656 16.207031 20.566406 16.152344 C 20.621094 16.121094 20.621094 16.121094 20.679688 16.101562 C 20.6875 16.085938 20.699219 16.074219 20.707031 16.058594 C 20.738281 16.019531 20.738281 16.019531 20.804688 16.015625 C 20.824219 16.015625 20.839844 16.019531 20.859375 16.019531 C 20.859375 16.03125 20.859375 16.046875 20.859375 16.058594 C 20.878906 16.058594 20.898438 16.058594 20.921875 16.054688 C 21.011719 16.054688 21.082031 16.09375 21.160156 16.140625 C 21.160156 16.152344 21.160156 16.167969 21.160156 16.179688 C 21.175781 16.183594 21.1875 16.1875 21.203125 16.195312 C 21.3125 16.246094 21.386719 16.324219 21.460938 16.421875 C 21.472656 16.425781 21.488281 16.433594 21.5 16.441406 C 21.5 16.453125 21.5 16.464844 21.5 16.480469 C 21.511719 16.480469 21.527344 16.480469 21.539062 16.480469 C 21.558594 16.523438 21.574219 16.5625 21.589844 16.605469 C 21.597656 16.628906 21.609375 16.652344 21.617188 16.675781 C 21.640625 16.738281 21.640625 16.738281 21.640625 16.820312 C 21.652344 16.820312 21.667969 16.820312 21.679688 16.820312 C 21.679688 17.289062 21.679688 17.757812 21.679688 18.238281 C 20.425781 18.238281 19.171875 18.238281 17.878906 18.238281 C 17.878906 16.847656 17.878906 16.847656 17.980469 16.59375 C 17.984375 16.578125 17.992188 16.5625 18 16.546875 C 18.019531 16.496094 18.046875 16.460938 18.078125 16.421875 C 18.09375 16.421875 18.105469 16.421875 18.121094 16.421875 C 18.125 16.410156 18.128906 16.398438 18.132812 16.386719 C 18.167969 16.328125 18.210938 16.285156 18.261719 16.238281 C 18.273438 16.238281 18.285156 16.238281 18.300781 16.238281 C 18.300781 16.226562 18.300781 16.214844 18.300781 16.199219 C 18.328125 16.195312 18.351562 16.1875 18.378906 16.179688 C 18.378906 16.167969 18.378906 16.152344 18.378906 16.140625 C 18.417969 16.132812 18.460938 16.125 18.5 16.121094 C 18.5 16.105469 18.5 16.09375 18.5 16.078125 C 18.613281 16.03125 18.71875 15.992188 18.839844 16.019531 Z M 18.839844 16.019531 "/>
<path style=" stroke:none;fill-rule:nonzero;fill:rgb(0.784314%,0.784314%,0.784314%);fill-opacity:1;" d="M 11.699219 12.519531 C 11.722656 12.535156 11.722656 12.535156 11.742188 12.546875 C 11.78125 12.578125 11.78125 12.578125 11.789062 12.621094 C 11.789062 12.636719 11.789062 12.652344 11.789062 12.667969 C 11.789062 12.6875 11.789062 12.707031 11.789062 12.722656 C 11.789062 12.742188 11.789062 12.761719 11.789062 12.78125 C 11.789062 12.800781 11.789062 12.824219 11.789062 12.84375 C 11.785156 12.90625 11.785156 12.96875 11.785156 13.035156 C 11.785156 13.078125 11.785156 13.121094 11.785156 13.164062 C 11.78125 13.269531 11.78125 13.375 11.78125 13.480469 C 11.609375 13.480469 11.4375 13.480469 11.261719 13.480469 C 11.261719 13.269531 11.261719 13.058594 11.261719 12.839844 C 11.144531 12.800781 11.027344 12.761719 10.90625 12.726562 C 10.894531 12.722656 10.878906 12.71875 10.863281 12.714844 C 10.851562 12.710938 10.835938 12.707031 10.820312 12.703125 C 10.808594 12.699219 10.796875 12.695312 10.785156 12.691406 C 10.628906 12.652344 10.472656 12.65625 10.316406 12.652344 C 10.289062 12.652344 10.265625 12.652344 10.238281 12.652344 C 9.972656 12.648438 9.746094 12.730469 9.546875 12.90625 C 9.351562 13.132812 9.230469 13.375 9.234375 13.675781 C 9.234375 13.691406 9.234375 13.707031 9.234375 13.722656 C 9.238281 13.976562 9.316406 14.164062 9.496094 14.339844 C 9.789062 14.585938 10.210938 14.699219 10.566406 14.808594 C 11.460938 15.082031 11.460938 15.082031 11.738281 15.378906 C 11.753906 15.394531 11.765625 15.40625 11.78125 15.421875 C 12.0625 15.75 12.148438 16.125 12.148438 16.546875 C 12.148438 16.5625 12.148438 16.574219 12.148438 16.589844 C 12.148438 17.0625 11.992188 17.445312 11.660156 17.78125 C 11.644531 17.792969 11.632812 17.808594 11.617188 17.824219 C 11.25 18.183594 10.703125 18.273438 10.210938 18.269531 C 9.855469 18.261719 9.5 18.171875 9.179688 18.019531 C 9.167969 18.015625 9.15625 18.007812 9.140625 18.003906 C 8.878906 17.875 8.605469 17.707031 8.441406 17.460938 C 8.433594 17.417969 8.433594 17.417969 8.433594 17.363281 C 8.433594 17.347656 8.433594 17.328125 8.433594 17.308594 C 8.4375 17.285156 8.4375 17.265625 8.4375 17.242188 C 8.4375 17.222656 8.4375 17.203125 8.4375 17.179688 C 8.4375 17.113281 8.4375 17.042969 8.4375 16.976562 C 8.4375 16.929688 8.4375 16.882812 8.4375 16.839844 C 8.4375 16.726562 8.4375 16.613281 8.441406 16.5 C 8.613281 16.5 8.78125 16.5 8.960938 16.5 C 8.957031 16.554688 8.957031 16.609375 8.953125 16.664062 C 8.953125 16.714844 8.953125 16.769531 8.953125 16.820312 C 8.953125 16.859375 8.949219 16.894531 8.949219 16.933594 C 8.933594 17.132812 8.933594 17.132812 9.007812 17.316406 C 9.089844 17.386719 9.183594 17.433594 9.28125 17.480469 C 9.304688 17.496094 9.304688 17.496094 9.332031 17.507812 C 9.375 17.53125 9.414062 17.550781 9.453125 17.570312 C 9.46875 17.574219 9.484375 17.582031 9.496094 17.589844 C 9.90625 17.769531 10.433594 17.785156 10.851562 17.632812 C 11 17.574219 11.121094 17.507812 11.238281 17.398438 C 11.253906 17.390625 11.265625 17.378906 11.277344 17.367188 C 11.460938 17.199219 11.566406 16.941406 11.582031 16.695312 C 11.589844 16.492188 11.589844 16.296875 11.519531 16.101562 C 11.515625 16.085938 11.511719 16.070312 11.503906 16.058594 C 11.394531 15.800781 11.136719 15.617188 10.890625 15.503906 C 10.875 15.492188 10.855469 15.484375 10.839844 15.476562 C 10.570312 15.355469 10.289062 15.273438 10.011719 15.1875 C 9.824219 15.128906 9.652344 15.066406 9.480469 14.980469 C 9.457031 14.96875 9.4375 14.960938 9.414062 14.949219 C 9.09375 14.789062 8.84375 14.527344 8.726562 14.1875 C 8.675781 14.03125 8.675781 13.882812 8.675781 13.722656 C 8.675781 13.695312 8.675781 13.671875 8.671875 13.644531 C 8.671875 13.230469 8.808594 12.851562 9.09375 12.542969 C 9.785156 11.898438 10.96875 11.992188 11.699219 12.519531 Z M 11.699219 12.519531 "/>
<path style=" stroke:none;fill-rule:nonzero;fill:rgb(1.176471%,1.176471%,1.176471%);fill-opacity:1;" d="M 25.277344 14.890625 C 25.300781 14.890625 25.324219 14.890625 25.351562 14.890625 C 25.636719 14.890625 25.894531 14.976562 26.105469 15.175781 C 26.382812 15.46875 26.390625 15.808594 26.386719 16.191406 C 26.386719 16.234375 26.386719 16.277344 26.386719 16.320312 C 26.386719 16.433594 26.386719 16.546875 26.386719 16.660156 C 26.382812 16.773438 26.382812 16.890625 26.382812 17.003906 C 26.382812 17.230469 26.382812 17.453125 26.378906 17.679688 C 26.570312 17.679688 26.761719 17.679688 26.960938 17.679688 C 26.960938 17.851562 26.960938 18.023438 26.960938 18.199219 C 26.367188 18.199219 25.773438 18.199219 25.160156 18.199219 C 25.160156 18.027344 25.160156 17.855469 25.160156 17.679688 C 25.378906 17.679688 25.59375 17.679688 25.820312 17.679688 C 25.820312 17.453125 25.820312 17.230469 25.820312 17.003906 C 25.816406 16.898438 25.816406 16.792969 25.816406 16.691406 C 25.816406 16.589844 25.816406 16.488281 25.816406 16.386719 C 25.816406 16.347656 25.816406 16.308594 25.816406 16.269531 C 25.816406 16 25.796875 15.792969 25.597656 15.589844 C 25.410156 15.441406 25.191406 15.417969 24.960938 15.441406 C 24.59375 15.496094 24.300781 15.664062 24.078125 15.960938 C 23.976562 16.121094 23.917969 16.28125 23.914062 16.472656 C 23.914062 16.484375 23.914062 16.5 23.914062 16.511719 C 23.914062 16.554688 23.914062 16.597656 23.914062 16.640625 C 23.914062 16.671875 23.914062 16.699219 23.914062 16.730469 C 23.910156 16.808594 23.910156 16.886719 23.910156 16.964844 C 23.90625 17.0625 23.90625 17.15625 23.90625 17.25 C 23.902344 17.394531 23.902344 17.535156 23.898438 17.679688 C 24.097656 17.679688 24.296875 17.679688 24.5 17.679688 C 24.5 17.851562 24.5 18.023438 24.5 18.199219 C 23.898438 18.199219 23.296875 18.199219 22.679688 18.199219 C 22.679688 18.027344 22.679688 17.855469 22.679688 17.679688 C 22.90625 17.679688 23.128906 17.679688 23.359375 17.679688 C 23.359375 16.953125 23.359375 16.226562 23.359375 15.480469 C 23.160156 15.480469 22.964844 15.480469 22.761719 15.480469 C 22.761719 15.308594 22.761719 15.136719 22.761719 14.960938 C 23.109375 14.960938 23.460938 14.960938 23.820312 14.960938 C 23.84375 15.140625 23.84375 15.140625 23.847656 15.214844 C 23.847656 15.238281 23.847656 15.238281 23.847656 15.261719 C 23.851562 15.28125 23.851562 15.296875 23.851562 15.3125 C 23.851562 15.332031 23.851562 15.347656 23.855469 15.367188 C 23.859375 15.503906 23.863281 15.640625 23.859375 15.78125 C 23.875 15.78125 23.886719 15.78125 23.898438 15.78125 C 23.902344 15.757812 23.902344 15.757812 23.90625 15.738281 C 23.96875 15.480469 24.21875 15.257812 24.433594 15.121094 C 24.703125 14.957031 24.960938 14.890625 25.277344 14.890625 Z M 25.277344 14.890625 "/>
<path style=" stroke:none;fill-rule:nonzero;fill:rgb(1.176471%,1.176471%,1.176471%);fill-opacity:1;" d="M 19.800781 13.734375 C 19.828125 13.734375 19.828125 13.734375 19.859375 13.734375 C 19.90625 13.738281 19.953125 13.738281 20 13.738281 C 20 13.753906 20 13.765625 20 13.78125 C 20.015625 13.78125 20.015625 13.78125 20.035156 13.78125 C 20.136719 13.789062 20.210938 13.808594 20.300781 13.859375 C 20.300781 13.875 20.300781 13.886719 20.300781 13.898438 C 20.316406 13.90625 20.328125 13.910156 20.34375 13.914062 C 20.402344 13.941406 20.445312 13.96875 20.492188 14.007812 C 20.507812 14.019531 20.523438 14.03125 20.539062 14.046875 C 20.609375 14.105469 20.652344 14.160156 20.699219 14.242188 C 20.714844 14.269531 20.730469 14.300781 20.75 14.328125 C 20.78125 14.386719 20.800781 14.441406 20.824219 14.503906 C 20.839844 14.578125 20.839844 14.578125 20.878906 14.640625 C 20.882812 14.667969 20.882812 14.699219 20.882812 14.730469 C 20.882812 14.757812 20.882812 14.757812 20.882812 14.785156 C 20.882812 14.8125 20.882812 14.8125 20.882812 14.839844 C 20.882812 14.859375 20.882812 14.878906 20.882812 14.898438 C 20.878906 14.945312 20.878906 14.992188 20.878906 15.039062 C 20.867188 15.039062 20.855469 15.039062 20.839844 15.039062 C 20.832031 15.097656 20.828125 15.160156 20.820312 15.21875 C 20.808594 15.21875 20.792969 15.21875 20.78125 15.21875 C 20.773438 15.265625 20.765625 15.3125 20.761719 15.359375 C 20.746094 15.359375 20.734375 15.359375 20.71875 15.359375 C 20.714844 15.394531 20.707031 15.425781 20.699219 15.460938 C 20.6875 15.460938 20.671875 15.460938 20.660156 15.460938 C 20.65625 15.476562 20.652344 15.496094 20.644531 15.515625 C 20.574219 15.695312 20.351562 15.792969 20.183594 15.875 C 20.121094 15.898438 20.082031 15.90625 20.019531 15.898438 C 20.019531 15.914062 20.019531 15.925781 20.019531 15.941406 C 19.820312 16.007812 19.539062 15.972656 19.355469 15.882812 C 19.328125 15.867188 19.304688 15.855469 19.28125 15.839844 C 19.265625 15.832031 19.246094 15.824219 19.230469 15.8125 C 19.082031 15.714844 18.890625 15.589844 18.847656 15.40625 C 18.84375 15.390625 18.84375 15.375 18.839844 15.359375 C 18.820312 15.351562 18.800781 15.347656 18.78125 15.339844 C 18.730469 15.246094 18.710938 15.144531 18.71875 15.039062 C 18.707031 15.039062 18.695312 15.039062 18.679688 15.039062 C 18.679688 14.976562 18.675781 14.914062 18.675781 14.851562 C 18.675781 14.824219 18.675781 14.824219 18.675781 14.796875 C 18.671875 14.675781 18.691406 14.589844 18.738281 14.480469 C 18.753906 14.480469 18.765625 14.480469 18.78125 14.480469 C 18.78125 14.457031 18.78125 14.4375 18.78125 14.414062 C 18.804688 14.230469 18.96875 14.074219 19.105469 13.957031 C 19.183594 13.902344 19.265625 13.875 19.355469 13.84375 C 19.40625 13.824219 19.445312 13.804688 19.496094 13.777344 C 19.59375 13.726562 19.691406 13.730469 19.800781 13.734375 Z M 19.800781 13.734375 "/>
<path style=" stroke:none;fill-rule:nonzero;fill:rgb(92.941177%,92.941177%,92.941177%);fill-opacity:1;" d="M 19.839844 16.660156 C 19.871094 16.664062 19.902344 16.664062 19.9375 16.667969 C 19.964844 16.667969 19.964844 16.667969 19.992188 16.671875 C 20.039062 16.679688 20.039062 16.679688 20.101562 16.71875 C 20.097656 16.738281 20.09375 16.753906 20.089844 16.769531 C 20.082031 16.792969 20.078125 16.816406 20.074219 16.839844 C 20.066406 16.863281 20.0625 16.886719 20.054688 16.910156 C 20.042969 16.964844 20.03125 17.023438 20.019531 17.078125 C 20.003906 17.148438 19.984375 17.214844 19.960938 17.28125 C 19.945312 17.28125 19.933594 17.28125 19.921875 17.28125 C 19.914062 17.339844 19.90625 17.398438 19.898438 17.460938 C 19.886719 17.460938 19.875 17.460938 19.859375 17.460938 C 19.859375 17.472656 19.859375 17.488281 19.859375 17.503906 C 19.847656 17.664062 19.8125 17.808594 19.761719 17.960938 C 19.714844 17.960938 19.667969 17.960938 19.621094 17.960938 C 19.621094 17.945312 19.621094 17.933594 19.621094 17.921875 C 19.585938 17.914062 19.554688 17.90625 19.519531 17.898438 C 19.546875 17.75 19.585938 17.601562 19.625 17.453125 C 19.644531 17.375 19.664062 17.300781 19.679688 17.21875 C 19.691406 17.21875 19.707031 17.21875 19.71875 17.21875 C 19.722656 17.207031 19.722656 17.191406 19.726562 17.179688 C 19.746094 17.066406 19.773438 16.957031 19.808594 16.847656 C 19.824219 16.785156 19.832031 16.722656 19.839844 16.660156 Z M 19.839844 16.660156 "/>
<path style=" stroke:none;fill-rule:nonzero;fill:rgb(91.764706%,91.764706%,91.764706%);fill-opacity:1;" d="M 20.460938 16.921875 C 20.59375 17 20.703125 17.089844 20.761719 17.238281 C 20.800781 17.257812 20.800781 17.257812 20.839844 17.261719 C 20.847656 17.292969 20.851562 17.324219 20.859375 17.359375 C 20.84375 17.367188 20.84375 17.367188 20.824219 17.375 C 20.769531 17.40625 20.738281 17.445312 20.699219 17.5 C 20.65625 17.554688 20.613281 17.609375 20.558594 17.660156 C 20.550781 17.671875 20.542969 17.683594 20.53125 17.695312 C 20.5 17.71875 20.5 17.71875 20.460938 17.722656 C 20.394531 17.6875 20.363281 17.640625 20.320312 17.578125 C 20.316406 17.53125 20.316406 17.53125 20.339844 17.480469 C 20.359375 17.457031 20.382812 17.433594 20.402344 17.410156 C 20.449219 17.359375 20.460938 17.347656 20.464844 17.277344 C 20.433594 17.207031 20.398438 17.183594 20.328125 17.144531 C 20.320312 17.136719 20.308594 17.128906 20.300781 17.121094 C 20.300781 17.09375 20.300781 17.066406 20.300781 17.039062 C 20.3125 17.039062 20.328125 17.039062 20.339844 17.039062 C 20.347656 17.019531 20.351562 17 20.359375 16.980469 C 20.410156 16.945312 20.410156 16.945312 20.460938 16.921875 Z M 20.460938 16.921875 "/>
<path style=" stroke:none;fill-rule:nonzero;fill:rgb(93.333334%,93.333334%,93.333334%);fill-opacity:1;" d="M 19.121094 16.898438 C 19.152344 16.941406 19.1875 16.980469 19.21875 17.019531 C 19.234375 17.027344 19.246094 17.03125 19.261719 17.039062 C 19.261719 17.066406 19.261719 17.09375 19.261719 17.121094 C 19.246094 17.125 19.234375 17.128906 19.222656 17.136719 C 19.148438 17.175781 19.125 17.203125 19.097656 17.285156 C 19.09375 17.359375 19.09375 17.359375 19.128906 17.398438 C 19.15625 17.421875 19.183594 17.445312 19.210938 17.46875 C 19.238281 17.5 19.238281 17.5 19.246094 17.550781 C 19.210938 17.617188 19.175781 17.65625 19.121094 17.699219 C 19.078125 17.703125 19.078125 17.703125 19.039062 17.679688 C 18.992188 17.636719 18.992188 17.636719 18.941406 17.578125 C 18.921875 17.5625 18.90625 17.546875 18.890625 17.53125 C 18.71875 17.359375 18.71875 17.359375 18.714844 17.3125 C 18.722656 17.242188 18.746094 17.222656 18.796875 17.171875 C 18.8125 17.15625 18.828125 17.140625 18.847656 17.125 C 18.863281 17.105469 18.878906 17.089844 18.898438 17.074219 C 18.914062 17.058594 18.929688 17.039062 18.949219 17.023438 C 19.074219 16.898438 19.074219 16.898438 19.121094 16.898438 Z M 19.121094 16.898438 "/>
<path style=" stroke:none;fill-rule:nonzero;fill:rgb(26.274511%,26.274511%,26.274511%);fill-opacity:1;" d="M 19.199219 13.898438 C 19.214844 13.90625 19.226562 13.914062 19.238281 13.921875 C 19.21875 13.925781 19.199219 13.933594 19.179688 13.941406 C 19.167969 13.964844 19.152344 13.992188 19.140625 14.019531 C 19.109375 14.054688 19.074219 14.089844 19.042969 14.121094 C 19.023438 14.140625 19.007812 14.15625 18.988281 14.175781 C 18.945312 14.214844 18.914062 14.238281 18.859375 14.261719 C 18.933594 14.101562 19.0625 13.996094 19.199219 13.898438 Z M 19.199219 13.898438 "/>
<path style=" stroke:none;fill-rule:nonzero;fill:rgb(46.27451%,46.27451%,46.27451%);fill-opacity:1;" d="M 19.625 13.734375 C 19.640625 13.734375 19.65625 13.734375 19.675781 13.734375 C 19.695312 13.734375 19.714844 13.738281 19.734375 13.738281 C 19.753906 13.738281 19.773438 13.738281 19.792969 13.738281 C 19.8125 13.738281 19.832031 13.738281 19.851562 13.738281 C 19.902344 13.738281 19.949219 13.738281 20 13.738281 C 20 13.753906 20 13.765625 20 13.78125 C 20.011719 13.78125 20.027344 13.78125 20.039062 13.78125 C 20.054688 13.785156 20.070312 13.785156 20.089844 13.789062 C 20.105469 13.789062 20.121094 13.789062 20.136719 13.792969 C 20.152344 13.792969 20.164062 13.796875 20.179688 13.800781 C 20.191406 13.820312 20.191406 13.820312 20.199219 13.839844 C 20.152344 13.832031 20.101562 13.828125 20.050781 13.820312 C 20.03125 13.820312 20.03125 13.820312 20.007812 13.816406 C 19.902344 13.800781 19.902344 13.800781 19.878906 13.78125 C 19.824219 13.777344 19.765625 13.777344 19.707031 13.777344 C 19.691406 13.777344 19.675781 13.777344 19.660156 13.777344 C 19.621094 13.777344 19.578125 13.78125 19.539062 13.78125 C 19.578125 13.738281 19.578125 13.738281 19.625 13.734375 Z M 19.625 13.734375 "/>
<path style=" stroke:none;fill-rule:nonzero;fill:rgb(31.764707%,31.764707%,31.764707%);fill-opacity:1;" d="M 20.738281 16.019531 C 20.800781 16.015625 20.800781 16.015625 20.859375 16.019531 C 20.859375 16.03125 20.859375 16.046875 20.859375 16.058594 C 20.890625 16.058594 20.890625 16.058594 20.921875 16.054688 C 21.011719 16.054688 21.082031 16.09375 21.160156 16.140625 C 21.101562 16.160156 21.082031 16.160156 21.019531 16.140625 C 21.019531 16.125 21.019531 16.113281 21.019531 16.101562 C 20.953125 16.09375 20.886719 16.085938 20.820312 16.078125 C 20.820312 16.066406 20.820312 16.054688 20.820312 16.039062 C 20.78125 16.054688 20.742188 16.066406 20.699219 16.078125 C 20.714844 16.058594 20.726562 16.039062 20.738281 16.019531 Z M 20.738281 16.019531 "/>
<path style=" stroke:none;fill-rule:nonzero;fill:rgb(24.313726%,24.313726%,24.313726%);fill-opacity:1;" d="M 18.261719 16.238281 C 18.265625 16.261719 18.273438 16.28125 18.28125 16.300781 C 18.257812 16.324219 18.238281 16.34375 18.214844 16.367188 C 18.203125 16.378906 18.191406 16.390625 18.179688 16.40625 C 18.140625 16.441406 18.105469 16.460938 18.058594 16.480469 C 18.066406 16.460938 18.074219 16.441406 18.078125 16.421875 C 18.09375 16.421875 18.105469 16.421875 18.121094 16.421875 C 18.125 16.402344 18.125 16.402344 18.132812 16.386719 C 18.167969 16.328125 18.210938 16.285156 18.261719 16.238281 Z M 18.261719 16.238281 "/>
<path style=" stroke:none;fill-rule:nonzero;fill:rgb(60.784316%,60.784316%,60.784316%);fill-opacity:1;" d="M 20.261719 15.820312 C 20.273438 15.828125 20.285156 15.832031 20.300781 15.839844 C 20.25 15.902344 20.203125 15.910156 20.125 15.921875 C 20.105469 15.925781 20.085938 15.929688 20.066406 15.933594 C 20.050781 15.9375 20.035156 15.9375 20.019531 15.941406 C 20.019531 15.925781 20.019531 15.914062 20.019531 15.898438 C 20.101562 15.875 20.179688 15.847656 20.261719 15.820312 Z M 20.261719 15.820312 "/>
<path style=" stroke:none;fill-rule:nonzero;fill:rgb(38.431373%,38.431373%,38.431373%);fill-opacity:1;" d="M 20.960938 16.058594 C 20.988281 16.070312 21.019531 16.078125 21.046875 16.085938 C 21.066406 16.09375 21.082031 16.097656 21.097656 16.101562 C 21.140625 16.121094 21.140625 16.121094 21.160156 16.160156 C 21.113281 16.152344 21.066406 16.148438 21.019531 16.140625 C 21.019531 16.125 21.019531 16.113281 21.019531 16.101562 C 21 16.09375 20.980469 16.085938 20.960938 16.078125 C 20.960938 16.074219 20.960938 16.066406 20.960938 16.058594 Z M 20.960938 16.058594 "/>
</g>
</svg>
