<?xml version="1.0" encoding="UTF-8"?>
<svg xmlns="http://www.w3.org/2000/svg" xmlns:xlink="http://www.w3.org/1999/xlink" width="128px" height="px" viewBox="0 0 128 128" version="1.1">
<g id="surface1">
<path style=" stroke:none;fill-rule:nonzero;fill:rgb(0.784314%,0.392157%,0%);fill-opacity:1;" d="M 35.605469 3.371094 C 36.074219 3.371094 36.542969 3.367188 37.007812 3.367188 C 38.273438 3.359375 39.539062 3.363281 40.804688 3.367188 C 42.128906 3.367188 43.457031 3.367188 44.78125 3.363281 C 47.007812 3.363281 49.234375 3.363281 51.460938 3.371094 C 54.03125 3.375 56.605469 3.375 59.175781 3.367188 C 61.386719 3.363281 63.597656 3.363281 65.808594 3.367188 C 67.125 3.367188 68.445312 3.367188 69.765625 3.363281 C 71.003906 3.359375 72.246094 3.363281 73.484375 3.367188 C 73.9375 3.371094 74.394531 3.371094 74.847656 3.367188 C 75.46875 3.363281 76.089844 3.367188 76.710938 3.371094 C 76.890625 3.371094 77.070312 3.367188 77.253906 3.367188 C 78.8125 3.390625 80.027344 3.945312 81.246094 4.878906 C 81.417969 5.058594 81.417969 5.058594 81.59375 5.238281 C 81.792969 5.4375 81.792969 5.4375 81.992188 5.640625 C 82.125 5.78125 82.253906 5.917969 82.390625 6.0625 C 82.601562 6.28125 82.601562 6.28125 82.816406 6.5 C 83.679688 7.394531 84.511719 8.3125 85.316406 9.261719 C 86.054688 10.09375 86.859375 10.859375 87.648438 11.640625 C 88.3125 12.3125 88.925781 13.015625 89.539062 13.734375 C 90.085938 14.347656 90.664062 14.921875 91.25 15.5 C 91.984375 16.222656 92.691406 16.949219 93.359375 17.734375 C 94.074219 18.574219 94.839844 19.351562 95.625 20.125 C 98.125 22.601562 100.15625 24.652344 100.277344 28.328125 C 100.277344 28.617188 100.273438 28.90625 100.273438 29.203125 C 100.273438 29.503906 100.273438 29.800781 100.273438 30.109375 C 100.269531 30.726562 100.257812 31.34375 100.238281 31.957031 C 100.230469 33.644531 100.230469 33.644531 100.957031 35.113281 C 101.53125 35.628906 102.113281 36.066406 102.75 36.5 C 103.042969 36.730469 103.332031 36.964844 103.621094 37.199219 C 103.894531 37.410156 104.164062 37.621094 104.4375 37.828125 C 105.605469 38.734375 106.75 39.664062 107.875 40.625 C 108.980469 41.570312 110.101562 42.484375 111.25 43.375 C 112.550781 44.386719 113.824219 45.429688 115.078125 46.503906 C 115.9375 47.238281 116.816406 47.953125 117.703125 48.65625 C 119.835938 50.40625 121.511719 52.046875 121.820312 54.894531 C 121.847656 55.617188 121.851562 56.335938 121.84375 57.058594 C 121.847656 57.332031 121.847656 57.609375 121.847656 57.890625 C 121.851562 58.808594 121.847656 59.726562 121.847656 60.644531 C 121.847656 61.300781 121.847656 61.960938 121.851562 62.621094 C 121.855469 64.222656 121.855469 65.824219 121.851562 67.425781 C 121.851562 68.730469 121.847656 70.03125 121.851562 71.335938 C 121.851562 71.519531 121.851562 71.707031 121.851562 71.898438 C 121.851562 72.273438 121.851562 72.652344 121.851562 73.03125 C 121.855469 76.5625 121.851562 80.097656 121.847656 83.632812 C 121.84375 86.660156 121.84375 89.691406 121.847656 92.722656 C 121.851562 96.242188 121.851562 99.765625 121.851562 103.289062 C 121.851562 103.664062 121.851562 104.039062 121.851562 104.414062 C 121.851562 104.601562 121.851562 104.785156 121.851562 104.976562 C 121.847656 106.277344 121.851562 107.574219 121.851562 108.875 C 121.855469 110.460938 121.855469 112.046875 121.851562 113.632812 C 121.847656 114.441406 121.847656 115.25 121.847656 116.058594 C 121.851562 116.9375 121.847656 117.8125 121.84375 118.691406 C 121.847656 118.945312 121.847656 119.199219 121.851562 119.460938 C 121.832031 121.71875 121.355469 123.828125 119.75 125.5 C 117.292969 127.527344 114.285156 127.320312 111.277344 127.3125 C 110.847656 127.3125 110.414062 127.316406 109.984375 127.316406 C 108.800781 127.316406 107.617188 127.316406 106.4375 127.316406 C 105.160156 127.3125 103.886719 127.316406 102.609375 127.316406 C 100.109375 127.320312 97.613281 127.320312 95.113281 127.316406 C 93.082031 127.316406 91.050781 127.316406 89.019531 127.316406 C 88.585938 127.316406 88.585938 127.316406 88.144531 127.316406 C 87.558594 127.316406 86.96875 127.316406 86.382812 127.316406 C 80.878906 127.320312 75.371094 127.316406 69.867188 127.316406 C 65.140625 127.3125 60.417969 127.3125 55.691406 127.316406 C 50.207031 127.316406 44.71875 127.320312 39.234375 127.316406 C 38.648438 127.316406 38.0625 127.316406 37.480469 127.316406 C 37.191406 127.316406 36.902344 127.316406 36.605469 127.316406 C 34.578125 127.316406 32.550781 127.316406 30.523438 127.316406 C 28.050781 127.320312 25.578125 127.320312 23.105469 127.316406 C 21.84375 127.316406 20.585938 127.316406 19.324219 127.316406 C 18.167969 127.316406 17.015625 127.316406 15.859375 127.3125 C 15.441406 127.3125 15.023438 127.3125 14.609375 127.316406 C 8.699219 127.332031 8.699219 127.332031 6.375 125.144531 C 4.789062 123.375 4.640625 121.714844 4.652344 119.441406 C 4.652344 119.164062 4.648438 118.882812 4.648438 118.59375 C 4.644531 117.652344 4.648438 116.710938 4.648438 115.773438 C 4.648438 115.097656 4.644531 114.421875 4.644531 113.75 C 4.640625 112.109375 4.640625 110.46875 4.640625 108.828125 C 4.640625 107.492188 4.640625 106.160156 4.640625 104.824219 C 4.640625 104.539062 4.640625 104.539062 4.640625 104.25 C 4.640625 103.863281 4.636719 103.476562 4.636719 103.089844 C 4.632812 99.472656 4.636719 95.855469 4.640625 92.234375 C 4.640625 88.925781 4.636719 85.617188 4.632812 82.308594 C 4.625 78.910156 4.625 75.511719 4.625 72.113281 C 4.625 70.207031 4.625 68.296875 4.621094 66.390625 C 4.617188 64.765625 4.617188 63.140625 4.621094 61.519531 C 4.625 60.691406 4.625 59.863281 4.621094 59.035156 C 4.617188 58.136719 4.621094 57.238281 4.625 56.339844 C 4.621094 56.078125 4.621094 55.816406 4.617188 55.550781 C 4.640625 53.210938 5.429688 51.703125 6.988281 50 C 7.925781 49.082031 8.964844 48.300781 10 47.5 C 10.453125 47.132812 10.90625 46.761719 11.359375 46.390625 C 11.707031 46.105469 11.707031 46.105469 12.058594 45.816406 C 12.285156 45.628906 12.515625 45.441406 12.75 45.25 C 14.503906 43.8125 16.261719 42.378906 18.019531 40.953125 C 19.683594 39.601562 21.339844 38.246094 22.992188 36.886719 C 23.238281 36.6875 23.484375 36.488281 23.734375 36.28125 C 24.0625 36.011719 24.0625 36.011719 24.398438 35.734375 C 25 35.25 25 35.25 25.53125 34.996094 C 26.320312 34.160156 26.136719 33.164062 26.125 32.058594 C 26.125 31.808594 26.128906 31.558594 26.128906 31.300781 C 26.132812 30.757812 26.132812 30.210938 26.128906 29.667969 C 26.125 28.804688 26.128906 27.941406 26.132812 27.078125 C 26.140625 25.554688 26.140625 24.035156 26.140625 22.511719 C 26.140625 20.082031 26.144531 17.648438 26.15625 15.21875 C 26.15625 14.367188 26.15625 13.519531 26.152344 12.671875 C 26.152344 12.148438 26.15625 11.625 26.15625 11.101562 C 26.15625 10.867188 26.152344 10.632812 26.152344 10.390625 C 26.167969 8.519531 26.515625 6.894531 27.78125 5.4375 C 27.910156 5.28125 28.039062 5.125 28.171875 4.964844 C 30.394531 3.175781 32.898438 3.355469 35.605469 3.371094 Z M 35.605469 3.371094 "/>
<path style=" stroke:none;fill-rule:nonzero;fill:rgb(99.215686%,87.058824%,87.058824%);fill-opacity:1;" d="M 33.472656 6.910156 C 33.648438 6.910156 33.820312 6.910156 34 6.90625 C 34.582031 6.90625 35.160156 6.910156 35.742188 6.914062 C 36.160156 6.914062 36.574219 6.914062 36.992188 6.914062 C 38.121094 6.914062 39.253906 6.917969 40.382812 6.925781 C 41.5625 6.929688 42.746094 6.929688 43.925781 6.929688 C 46.164062 6.933594 48.402344 6.9375 50.640625 6.945312 C 53.1875 6.953125 55.734375 6.957031 58.28125 6.960938 C 63.519531 6.96875 68.761719 6.984375 74 7 C 74 7.214844 74 7.425781 74 7.648438 C 74.003906 9.671875 74.015625 11.691406 74.03125 13.714844 C 74.042969 14.753906 74.046875 15.792969 74.050781 16.835938 C 74.050781 17.839844 74.058594 18.84375 74.066406 19.851562 C 74.070312 20.230469 74.074219 20.613281 74.070312 20.996094 C 74.066406 23.441406 74.191406 25.605469 75.945312 27.476562 C 77.316406 28.75 78.664062 29.339844 80.550781 29.359375 C 80.722656 29.359375 80.894531 29.363281 81.074219 29.367188 C 81.644531 29.375 82.210938 29.375 82.78125 29.378906 C 83.175781 29.382812 83.570312 29.386719 83.964844 29.390625 C 85.003906 29.402344 86.042969 29.410156 87.082031 29.417969 C 88.140625 29.425781 89.203125 29.4375 90.265625 29.449219 C 92.34375 29.46875 94.421875 29.484375 96.5 29.5 C 96.550781 34.714844 96.59375 39.925781 96.617188 45.140625 C 96.628906 47.5625 96.644531 49.980469 96.667969 52.402344 C 96.691406 54.511719 96.707031 56.621094 96.710938 58.734375 C 96.714844 59.851562 96.722656 60.96875 96.738281 62.085938 C 96.753906 63.136719 96.757812 64.1875 96.753906 65.242188 C 96.753906 65.625 96.757812 66.011719 96.769531 66.398438 C 96.832031 69.300781 96.832031 69.300781 96.011719 70.410156 C 95.449219 70.917969 94.886719 71.339844 94.25 71.75 C 93.960938 71.976562 93.671875 72.207031 93.386719 72.441406 C 93.117188 72.648438 92.847656 72.855469 92.578125 73.0625 C 91.335938 74.023438 90.125 75.019531 88.9375 76.046875 C 87.789062 77.039062 86.628906 78.011719 85.4375 78.953125 C 84.542969 79.664062 83.652344 80.386719 82.765625 81.109375 C 82.59375 81.25 82.421875 81.390625 82.242188 81.535156 C 81.246094 82.34375 80.257812 83.15625 79.265625 83.96875 C 78.109375 84.917969 76.9375 85.839844 75.75 86.75 C 74.730469 86.316406 73.917969 85.625 73.0625 84.9375 C 72.75 84.6875 72.433594 84.4375 72.121094 84.191406 C 71.828125 83.960938 71.539062 83.730469 71.25 83.5 C 68.003906 80.921875 64.871094 80.121094 60.75 80.5 C 57.933594 81.085938 55.824219 82.90625 53.667969 84.703125 C 52.800781 85.414062 51.90625 86.089844 51 86.75 C 50.167969 86.375 49.527344 85.898438 48.828125 85.3125 C 48.585938 85.113281 48.34375 84.910156 48.097656 84.707031 C 47.960938 84.59375 47.828125 84.480469 47.691406 84.367188 C 46.851562 83.667969 46.011719 82.976562 45.171875 82.28125 C 44.988281 82.132812 44.808594 81.980469 44.621094 81.824219 C 43.347656 80.777344 42.058594 79.753906 40.757812 78.742188 C 39.636719 77.867188 38.554688 76.957031 37.472656 76.03125 C 36.242188 74.984375 34.972656 73.988281 33.695312 73 C 33.554688 72.882812 33.414062 72.765625 33.269531 72.644531 C 32.734375 72.21875 32.734375 72.21875 32.015625 71.835938 C 30.917969 71.125 29.972656 70.480469 29.578125 69.1875 C 29.292969 67.449219 29.363281 65.691406 29.394531 63.9375 C 29.394531 63.34375 29.390625 62.75 29.386719 62.15625 C 29.382812 60.546875 29.394531 58.9375 29.414062 57.328125 C 29.429688 55.816406 29.425781 54.300781 29.425781 52.789062 C 29.429688 49.789062 29.445312 46.792969 29.46875 43.796875 C 29.492188 40.886719 29.507812 37.980469 29.511719 35.074219 C 29.511719 34.894531 29.511719 34.714844 29.511719 34.53125 C 29.511719 34.171875 29.511719 33.808594 29.511719 33.449219 C 29.511719 33.269531 29.511719 33.09375 29.511719 32.910156 C 29.511719 32.730469 29.511719 32.554688 29.511719 32.371094 C 29.515625 29.597656 29.527344 26.820312 29.539062 24.046875 C 29.542969 23.210938 29.546875 22.375 29.550781 21.535156 C 29.554688 19.628906 29.566406 17.71875 29.582031 15.8125 C 29.585938 15.234375 29.589844 14.65625 29.589844 14.078125 C 29.59375 13.289062 29.601562 12.5 29.609375 11.710938 C 29.609375 11.480469 29.609375 11.25 29.605469 11.015625 C 29.636719 9.378906 30.035156 8.476562 31.203125 7.285156 C 31.980469 6.878906 32.601562 6.90625 33.472656 6.910156 Z M 33.472656 6.910156 "/>
<path style=" stroke:none;fill-rule:nonzero;fill:rgb(98.039216%,54.509807%,0%);fill-opacity:1;" d="M 63.078125 83.59375 C 63.355469 83.597656 63.355469 83.597656 63.636719 83.601562 C 66.898438 83.746094 69.039062 85.820312 71.347656 87.894531 C 71.898438 88.382812 72.46875 88.839844 73.046875 89.296875 C 73.882812 89.957031 74.707031 90.621094 75.53125 91.296875 C 76.683594 92.242188 77.839844 93.183594 79 94.125 C 80.800781 95.585938 82.59375 97.054688 84.390625 98.523438 C 85.929688 99.785156 87.476562 101.042969 89.023438 102.300781 C 90.191406 103.25 91.359375 104.203125 92.523438 105.15625 C 93.429688 105.898438 94.339844 106.636719 95.25 107.375 C 96.59375 108.464844 97.933594 109.558594 99.273438 110.65625 C 100.179688 111.398438 101.089844 112.136719 102 112.875 C 103.800781 114.335938 105.59375 115.804688 107.390625 117.273438 C 107.605469 117.453125 107.824219 117.628906 108.046875 117.8125 C 108.269531 117.996094 108.492188 118.179688 108.722656 118.367188 C 109.320312 118.855469 109.917969 119.335938 110.519531 119.820312 C 110.695312 119.964844 110.875 120.105469 111.058594 120.253906 C 111.40625 120.535156 111.757812 120.816406 112.109375 121.097656 C 112.269531 121.230469 112.433594 121.359375 112.601562 121.496094 C 112.742188 121.613281 112.886719 121.726562 113.035156 121.84375 C 113.632812 122.367188 114.1875 122.9375 114.75 123.5 C 80.675781 123.5 46.605469 123.5 11.5 123.5 C 12.90625 122.09375 12.90625 122.09375 13.648438 121.496094 C 13.8125 121.363281 13.976562 121.234375 14.140625 121.097656 C 14.3125 120.964844 14.480469 120.828125 14.65625 120.6875 C 15.015625 120.398438 15.375 120.109375 15.730469 119.820312 C 15.90625 119.679688 16.078125 119.539062 16.257812 119.394531 C 16.910156 118.871094 17.558594 118.34375 18.203125 117.8125 C 18.421875 117.632812 18.636719 117.457031 18.859375 117.273438 C 19.070312 117.101562 19.28125 116.929688 19.5 116.75 C 21.253906 115.3125 23.011719 113.878906 24.773438 112.449219 C 25.726562 111.675781 26.675781 110.902344 27.625 110.125 C 28.921875 109.0625 30.222656 108.007812 31.523438 106.949219 C 32.476562 106.175781 33.425781 105.402344 34.375 104.625 C 35.496094 103.707031 36.625 102.789062 37.75 101.875 C 39.335938 100.585938 40.917969 99.296875 42.5 98 C 44.253906 96.5625 46.011719 95.128906 47.769531 93.703125 C 49.183594 92.554688 50.59375 91.402344 52 90.25 C 52.660156 89.710938 53.316406 89.171875 53.976562 88.632812 C 54.566406 88.148438 55.152344 87.664062 55.734375 87.171875 C 56.082031 86.878906 56.433594 86.589844 56.78125 86.296875 C 57.023438 86.089844 57.023438 86.089844 57.269531 85.878906 C 59.027344 84.421875 60.769531 83.554688 63.078125 83.59375 Z M 63.078125 83.59375 "/>
<path style=" stroke:none;fill-rule:nonzero;fill:rgb(19.215687%,83.529413%,61.960787%);fill-opacity:1;" d="M 76.859375 35.046875 C 81.296875 38.628906 84.808594 43.710938 85.5 49.5 C 85.792969 53.4375 85.847656 57.335938 84.25 61 C 84.175781 61.167969 84.105469 61.339844 84.03125 61.515625 C 81.476562 67.347656 77.171875 71.625 71.25 74 C 67.054688 75.640625 62.898438 75.851562 58.5 75 C 58.257812 74.957031 58.019531 74.914062 57.769531 74.871094 C 54.402344 74.164062 51.417969 72.371094 48.75 70.25 C 48.363281 69.964844 48.363281 69.964844 47.96875 69.671875 C 43.585938 65.574219 40.980469 59.941406 40.675781 53.984375 C 40.464844 47.730469 42.457031 42.480469 46.5 37.75 C 46.710938 37.5 46.710938 37.5 46.925781 37.25 C 54.710938 28.816406 67.894531 28.417969 76.859375 35.046875 Z M 76.859375 35.046875 "/>
<path style=" stroke:none;fill-rule:nonzero;fill:rgb(99.607843%,62.352943%,0%);fill-opacity:1;" d="M 8.25 56.75 C 9.28125 57.367188 10.148438 58.015625 11.046875 58.796875 C 11.335938 59.046875 11.628906 59.296875 11.921875 59.542969 C 12.0625 59.664062 12.203125 59.785156 12.351562 59.910156 C 13.070312 60.523438 13.8125 61.105469 14.554688 61.695312 C 17.269531 63.859375 19.953125 66.070312 22.636719 68.273438 C 24.671875 69.9375 26.710938 71.59375 28.75 73.25 C 31.003906 75.078125 33.253906 76.910156 35.5 78.75 C 35.957031 79.125 36.417969 79.5 36.875 79.875 C 37.546875 80.425781 38.222656 80.976562 38.894531 81.527344 C 40.085938 82.503906 41.28125 83.480469 42.480469 84.453125 C 42.824219 84.734375 43.171875 85.015625 43.515625 85.296875 C 44.292969 85.929688 45.074219 86.5625 45.867188 87.179688 C 46.117188 87.378906 46.367188 87.578125 46.625 87.78125 C 46.84375 87.953125 47.0625 88.121094 47.289062 88.296875 C 47.441406 88.449219 47.59375 88.597656 47.75 88.75 C 47.75 88.996094 47.75 89.246094 47.75 89.5 C 47.292969 89.949219 46.839844 90.347656 46.34375 90.75 C 46.199219 90.871094 46.050781 90.992188 45.902344 91.117188 C 44.71875 92.085938 43.515625 93.03125 42.308594 93.96875 C 41.308594 94.746094 40.335938 95.550781 39.375 96.375 C 38.128906 97.441406 36.851562 98.460938 35.558594 99.46875 C 34.558594 100.246094 33.585938 101.050781 32.625 101.875 C 31.378906 102.941406 30.101562 103.960938 28.808594 104.96875 C 27.808594 105.746094 26.835938 106.550781 25.875 107.375 C 24.769531 108.320312 23.648438 109.234375 22.5 110.125 C 21.191406 111.144531 19.914062 112.195312 18.652344 113.273438 C 17.683594 114.097656 16.699219 114.902344 15.699219 115.691406 C 14.96875 116.277344 14.238281 116.867188 13.515625 117.457031 C 10.886719 119.601562 10.886719 119.601562 9.65625 120.578125 C 9.488281 120.710938 9.324219 120.84375 9.148438 120.980469 C 8.75 121.25 8.75 121.25 8.25 121.25 C 8.25 99.964844 8.25 78.679688 8.25 56.75 Z M 8.25 56.75 "/>
<path style=" stroke:none;fill-rule:nonzero;fill:rgb(99.607843%,62.352943%,0%);fill-opacity:1;" d="M 118 56.75 C 118 78.035156 118 99.320312 118 121.25 C 117.128906 120.8125 116.550781 120.414062 115.8125 119.796875 C 115.570312 119.597656 115.332031 119.398438 115.082031 119.191406 C 114.949219 119.082031 114.816406 118.96875 114.679688 118.855469 C 113.875 118.191406 113.0625 117.535156 112.25 116.875 C 110.449219 115.414062 108.65625 113.945312 106.859375 112.476562 C 105.320312 111.214844 103.773438 109.957031 102.226562 108.699219 C 101.058594 107.75 99.890625 106.796875 98.726562 105.84375 C 97.820312 105.101562 96.910156 104.363281 96 103.625 C 94.199219 102.164062 92.40625 100.695312 90.609375 99.226562 C 88.929688 97.847656 87.238281 96.476562 85.550781 95.101562 C 84.84375 94.53125 84.140625 93.957031 83.433594 93.382812 C 81.71875 91.984375 80.007812 90.589844 78.25 89.25 C 79.140625 88.335938 80.070312 87.492188 81.046875 86.671875 C 81.1875 86.550781 81.332031 86.433594 81.480469 86.308594 C 82.519531 85.433594 83.574219 84.582031 84.640625 83.734375 C 85.507812 83.042969 86.363281 82.339844 87.21875 81.636719 C 88.144531 80.878906 89.074219 80.128906 90 79.375 C 91.585938 78.085938 93.167969 76.796875 94.75 75.5 C 96.503906 74.0625 98.261719 72.628906 100.023438 71.199219 C 100.976562 70.425781 101.925781 69.652344 102.875 68.875 C 103.996094 67.957031 105.125 67.039062 106.25 66.125 C 107.835938 64.835938 109.417969 63.546875 111 62.25 C 111.683594 61.6875 112.371094 61.128906 113.054688 60.566406 C 113.535156 60.175781 114.011719 59.785156 114.492188 59.394531 C 114.851562 59.097656 114.851562 59.097656 115.21875 58.796875 C 115.433594 58.621094 115.652344 58.441406 115.875 58.261719 C 116.078125 58.09375 116.285156 57.921875 116.5 57.75 C 116.726562 57.5625 116.953125 57.375 117.1875 57.183594 C 117.75 56.75 117.75 56.75 118 56.75 Z M 118 56.75 "/>
<path style=" stroke:none;fill-rule:nonzero;fill:rgb(1.176471%,1.568628%,1.176471%);fill-opacity:1;" d="M 76.859375 35.046875 C 81.296875 38.628906 84.808594 43.710938 85.5 49.5 C 85.792969 53.4375 85.847656 57.335938 84.25 61 C 84.175781 61.167969 84.105469 61.339844 84.03125 61.515625 C 81.476562 67.347656 77.171875 71.625 71.25 74 C 67.054688 75.640625 62.898438 75.851562 58.5 75 C 58.257812 74.957031 58.019531 74.914062 57.769531 74.871094 C 54.402344 74.164062 51.417969 72.371094 48.75 70.25 C 48.363281 69.964844 48.363281 69.964844 47.96875 69.671875 C 43.585938 65.574219 40.980469 59.941406 40.675781 53.984375 C 40.464844 47.730469 42.457031 42.480469 46.5 37.75 C 46.710938 37.5 46.710938 37.5 46.925781 37.25 C 54.710938 28.816406 67.894531 28.417969 76.859375 35.046875 Z M 50.25 39 C 50.023438 39.195312 50.023438 39.195312 49.789062 39.390625 C 46.242188 42.609375 44.414062 47.464844 44.179688 52.152344 C 44.113281 54.367188 44.28125 56.386719 45 58.5 C 45.089844 58.765625 45.175781 59.035156 45.265625 59.308594 C 47.058594 64.351562 50.554688 67.964844 55.328125 70.328125 C 60.699219 72.644531 65.679688 72.449219 71.0625 70.328125 C 75.585938 68.28125 79.113281 64.503906 80.925781 59.902344 C 82.800781 54.910156 82.527344 49.46875 80.367188 44.640625 C 78.050781 39.980469 74.242188 36.777344 69.40625 34.96875 C 62.644531 32.707031 55.527344 34.183594 50.25 39 Z M 50.25 39 "/>
<path style=" stroke:none;fill-rule:nonzero;fill:rgb(92.54902%,58.431375%,0%);fill-opacity:1;" d="M 118 56.75 C 118 78.035156 118 99.320312 118 121.25 C 117.082031 120.789062 116.429688 120.320312 115.640625 119.671875 C 115.410156 119.480469 115.175781 119.292969 114.9375 119.097656 C 114.710938 118.898438 114.484375 118.703125 114.25 118.5 C 114.03125 118.328125 113.816406 118.15625 113.59375 117.980469 C 112.773438 116.96875 112.824219 116.230469 112.835938 114.964844 C 112.832031 114.734375 112.832031 114.503906 112.828125 114.265625 C 112.820312 113.492188 112.824219 112.71875 112.824219 111.945312 C 112.824219 111.390625 112.820312 110.835938 112.816406 110.28125 C 112.808594 108.777344 112.804688 107.269531 112.808594 105.761719 C 112.808594 104.820312 112.808594 103.878906 112.808594 102.9375 C 112.804688 100.328125 112.804688 97.714844 112.8125 95.105469 C 112.8125 94.9375 112.816406 94.769531 112.816406 94.597656 C 112.816406 94.261719 112.816406 93.921875 112.820312 93.582031 C 112.820312 93.414062 112.820312 93.246094 112.820312 93.074219 C 112.820312 92.90625 112.820312 92.738281 112.820312 92.566406 C 112.832031 89.839844 112.824219 87.117188 112.808594 84.394531 C 112.792969 81.597656 112.792969 78.796875 112.800781 76 C 112.808594 74.429688 112.808594 72.859375 112.796875 71.289062 C 112.78125 69.808594 112.789062 68.332031 112.804688 66.855469 C 112.808594 66.3125 112.804688 65.773438 112.796875 65.230469 C 112.730469 60.941406 112.730469 60.941406 114.023438 59.519531 C 114.863281 58.734375 115.78125 58.113281 116.75 57.5 C 116.945312 57.351562 117.144531 57.203125 117.347656 57.050781 C 117.75 56.75 117.75 56.75 118 56.75 Z M 118 56.75 "/>
<path style=" stroke:none;fill-rule:nonzero;fill:rgb(99.607843%,69.803923%,0%);fill-opacity:1;" d="M 100 39.25 C 100.773438 39.636719 101.265625 39.929688 101.90625 40.46875 C 102.074219 40.609375 102.246094 40.753906 102.421875 40.898438 C 102.601562 41.050781 102.78125 41.203125 102.96875 41.359375 C 104.3125 42.480469 105.664062 43.585938 107.046875 44.65625 C 108.378906 45.691406 109.660156 46.769531 110.933594 47.875 C 112.121094 48.902344 113.347656 49.878906 114.59375 50.835938 C 115.367188 51.433594 116.078125 52.042969 116.75 52.75 C 116.40625 53.542969 116.039062 53.992188 115.367188 54.535156 C 115.191406 54.675781 115.015625 54.820312 114.835938 54.96875 C 114.648438 55.117188 114.460938 55.269531 114.265625 55.421875 C 114.074219 55.578125 113.882812 55.734375 113.683594 55.894531 C 113.296875 56.207031 112.914062 56.515625 112.527344 56.824219 C 111.859375 57.363281 111.195312 57.90625 110.53125 58.453125 C 110.105469 58.800781 109.675781 59.152344 109.25 59.5 C 108.792969 59.875 108.332031 60.25 107.875 60.625 C 107.648438 60.8125 107.417969 60.996094 107.183594 61.1875 C 106.734375 61.558594 106.285156 61.925781 105.839844 62.296875 C 104.519531 63.382812 103.1875 64.453125 101.84375 65.515625 C 101.613281 65.699219 101.613281 65.699219 101.375 65.886719 C 100.28125 66.75 100.28125 66.75 100 66.75 C 100 57.675781 100 48.601562 100 39.25 Z M 100 39.25 "/>
<path style=" stroke:none;fill-rule:nonzero;fill:rgb(99.215686%,69.803923%,0%);fill-opacity:1;" d="M 26.25 39.25 C 26.25 48.242188 26.25 57.234375 26.25 66.5 C 25.410156 66.078125 24.828125 65.695312 24.109375 65.109375 C 23.890625 64.929688 23.667969 64.753906 23.445312 64.570312 C 23.214844 64.378906 22.984375 64.191406 22.75 64 C 22.527344 63.816406 22.300781 63.636719 22.070312 63.445312 C 21.378906 62.882812 20.691406 62.316406 20 61.75 C 18.246094 60.3125 16.492188 58.882812 14.734375 57.453125 C 13.503906 56.457031 12.28125 55.457031 11.058594 54.453125 C 10.546875 54.039062 10.027344 53.640625 9.5 53.25 C 9.839844 52.46875 10.195312 52.015625 10.855469 51.484375 C 11.027344 51.34375 11.199219 51.203125 11.378906 51.058594 C 11.5625 50.910156 11.746094 50.761719 11.9375 50.609375 C 12.128906 50.453125 12.320312 50.300781 12.515625 50.140625 C 13.824219 49.082031 15.144531 48.042969 16.472656 47.011719 C 17.679688 46.066406 18.84375 45.074219 20.003906 44.070312 C 21.226562 43.011719 22.476562 41.996094 23.75 41 C 23.960938 40.832031 24.175781 40.664062 24.394531 40.488281 C 25.96875 39.25 25.96875 39.25 26.25 39.25 Z M 26.25 39.25 "/>
<path style=" stroke:none;fill-rule:nonzero;fill:rgb(87.450981%,74.901962%,74.901962%);fill-opacity:1;" d="M 77.5 7.25 C 78.378906 7.441406 78.777344 7.683594 79.410156 8.328125 C 79.664062 8.585938 79.664062 8.585938 79.925781 8.847656 C 80.097656 9.027344 80.273438 9.207031 80.453125 9.390625 C 80.710938 9.648438 80.710938 9.648438 80.972656 9.914062 C 81.972656 10.929688 82.921875 11.972656 83.855469 13.050781 C 84.378906 13.644531 84.933594 14.199219 85.5 14.75 C 86.234375 15.472656 86.941406 16.199219 87.609375 16.984375 C 88.324219 17.824219 89.089844 18.601562 89.875 19.375 C 90.808594 20.296875 91.695312 21.238281 92.542969 22.238281 C 93.316406 23.101562 94.15625 23.898438 94.992188 24.699219 C 95.5 25.25 95.5 25.25 95.75 26 C 93.65625 26.023438 91.5625 26.039062 89.472656 26.050781 C 88.5 26.058594 87.527344 26.0625 86.554688 26.074219 C 85.617188 26.085938 84.679688 26.09375 83.742188 26.09375 C 83.382812 26.097656 83.027344 26.101562 82.667969 26.105469 C 82.167969 26.113281 81.664062 26.113281 81.160156 26.113281 C 80.875 26.117188 80.589844 26.117188 80.296875 26.121094 C 79.296875 25.96875 78.769531 25.648438 78 25 C 77.445312 24.046875 77.4375 23.183594 77.441406 22.09375 C 77.441406 21.933594 77.441406 21.769531 77.441406 21.605469 C 77.445312 21.078125 77.445312 20.546875 77.453125 20.019531 C 77.453125 19.652344 77.453125 19.28125 77.453125 18.914062 C 77.457031 17.949219 77.460938 16.980469 77.464844 16.015625 C 77.472656 15.027344 77.472656 14.042969 77.476562 13.054688 C 77.480469 11.121094 77.488281 9.183594 77.5 7.25 Z M 77.5 7.25 "/>
<path style=" stroke:none;fill-rule:nonzero;fill:rgb(10.196079%,72.941178%,52.156866%);fill-opacity:1;" d="M 60.75 34 C 66.1875 33.789062 70.46875 34.851562 75 38 C 75.152344 38.105469 75.308594 38.210938 75.464844 38.320312 C 78.890625 40.980469 81.175781 45.304688 82 49.5 C 82.097656 50.582031 82.105469 51.648438 82.09375 52.734375 C 82.097656 53.007812 82.097656 53.28125 82.101562 53.558594 C 82.085938 58.578125 79.976562 62.949219 76.578125 66.5625 C 72.171875 70.742188 66.929688 72.125 61 72 C 61 71.917969 61 71.835938 61 71.75 C 61.21875 71.746094 61.4375 71.742188 61.660156 71.738281 C 66.097656 71.5625 69.570312 69.457031 72.566406 66.277344 C 75.996094 62.472656 77.5 57.523438 77.328125 52.480469 C 77.074219 47.804688 75.554688 43.8125 72.5 40.25 C 72.269531 39.976562 72.269531 39.976562 72.035156 39.699219 C 69.003906 36.40625 65.035156 35.003906 60.75 34.25 C 60.75 34.167969 60.75 34.085938 60.75 34 Z M 60.75 34 "/>
<path style=" stroke:none;fill-rule:nonzero;fill:rgb(87.843138%,75.294119%,75.294119%);fill-opacity:1;" d="M 92.75 29.5 C 93.988281 29.5 95.226562 29.5 96.5 29.5 C 96.550781 34.714844 96.59375 39.925781 96.617188 45.140625 C 96.628906 47.5625 96.644531 49.980469 96.667969 52.402344 C 96.691406 54.511719 96.707031 56.621094 96.710938 58.734375 C 96.714844 59.851562 96.722656 60.96875 96.738281 62.085938 C 96.753906 63.136719 96.757812 64.1875 96.753906 65.242188 C 96.753906 65.625 96.757812 66.011719 96.769531 66.398438 C 96.828125 69.289062 96.828125 69.289062 96.035156 70.402344 C 95.464844 70.921875 94.902344 71.335938 94.25 71.75 C 93.507812 72.246094 93.507812 72.246094 92.75 72.75 C 92.75 58.476562 92.75 44.203125 92.75 29.5 Z M 92.75 29.5 "/>
<path style=" stroke:none;fill-rule:nonzero;fill:rgb(0%,1.176471%,0.784314%);fill-opacity:1;" d="M 73 45 C 73.5 45.5 73.5 45.5 73.625 46.421875 C 73.589844 47.742188 72.898438 48.371094 71.984375 49.25 C 71.683594 49.554688 71.382812 49.863281 71.082031 50.167969 C 70.9375 50.3125 70.792969 50.457031 70.640625 50.605469 C 70.175781 51.074219 69.742188 51.5625 69.3125 52.0625 C 68.121094 53.441406 66.890625 54.789062 65.667969 56.144531 C 64.785156 57.121094 63.910156 58.101562 63.046875 59.09375 C 62.90625 59.253906 62.765625 59.414062 62.621094 59.578125 C 62.320312 59.917969 62.035156 60.269531 61.75 60.625 C 60.976562 61.203125 60.445312 61.113281 59.5 61 C 58.890625 60.546875 58.429688 60.140625 57.914062 59.59375 C 57.773438 59.453125 57.632812 59.308594 57.488281 59.160156 C 57.039062 58.707031 56.597656 58.242188 56.15625 57.78125 C 55.855469 57.472656 55.550781 57.164062 55.246094 56.855469 C 52.785156 54.339844 52.785156 54.339844 52.671875 53.28125 C 52.75 52.5 52.75 52.5 53.140625 51.890625 C 53.816406 51.457031 54.195312 51.40625 54.984375 51.542969 C 56.164062 52.019531 57 53.078125 57.859375 53.984375 C 58.066406 54.195312 58.273438 54.402344 58.484375 54.617188 C 60 56.171875 60 56.171875 60 56.75 C 61.046875 55.933594 61.910156 55.066406 62.769531 54.058594 C 63.296875 53.445312 63.832031 52.847656 64.375 52.25 C 65.191406 51.347656 65.996094 50.433594 66.796875 49.515625 C 67.328125 48.914062 67.867188 48.316406 68.40625 47.71875 C 69.03125 47.027344 69.644531 46.332031 70.234375 45.609375 C 71.128906 44.550781 71.6875 44.742188 73 45 Z M 73 45 "/>
<path style=" stroke:none;fill-rule:nonzero;fill:rgb(92.941177%,65.098041%,0%);fill-opacity:1;" d="M 100 39.25 C 100.773438 39.636719 101.265625 39.929688 101.90625 40.46875 C 102.074219 40.609375 102.246094 40.753906 102.421875 40.898438 C 102.601562 41.050781 102.78125 41.203125 102.96875 41.359375 C 104.3125 42.480469 105.664062 43.585938 107.046875 44.65625 C 108.378906 45.691406 109.660156 46.769531 110.933594 47.875 C 112.121094 48.902344 113.347656 49.878906 114.59375 50.835938 C 115.367188 51.433594 116.078125 52.042969 116.75 52.75 C 116.359375 53.804688 115.570312 54.382812 114.71875 55.0625 C 114.578125 55.175781 114.4375 55.292969 114.292969 55.410156 C 113.945312 55.691406 113.597656 55.972656 113.25 56.25 C 113.117188 56.070312 112.984375 55.890625 112.84375 55.707031 C 112.199219 54.941406 111.488281 54.308594 110.71875 53.671875 C 110.574219 53.550781 110.429688 53.433594 110.285156 53.308594 C 109.238281 52.4375 108.179688 51.582031 107.113281 50.738281 C 106.460938 50.21875 105.816406 49.6875 105.171875 49.15625 C 103.636719 47.910156 102.066406 46.707031 100.5 45.5 C 100.417969 52.511719 100.335938 59.523438 100.25 66.75 C 100.167969 66.75 100.085938 66.75 100 66.75 C 100 57.675781 100 48.601562 100 39.25 Z M 100 39.25 "/>
<path style=" stroke:none;fill-rule:nonzero;fill:rgb(80.000001%,65.098041%,65.098041%);fill-opacity:1;" d="M 77.5 7.25 C 78.515625 7.503906 78.71875 7.625 79.410156 8.328125 C 79.664062 8.585938 79.664062 8.585938 79.925781 8.847656 C 80.097656 9.027344 80.273438 9.207031 80.453125 9.390625 C 80.710938 9.648438 80.710938 9.648438 80.972656 9.914062 C 81.972656 10.929688 82.921875 11.972656 83.855469 13.050781 C 84.378906 13.644531 84.933594 14.199219 85.5 14.75 C 86.234375 15.472656 86.941406 16.199219 87.609375 16.984375 C 88.324219 17.824219 89.089844 18.601562 89.875 19.375 C 90.808594 20.296875 91.695312 21.238281 92.542969 22.238281 C 93.316406 23.101562 94.15625 23.898438 94.992188 24.699219 C 95.5 25.25 95.5 25.25 95.75 26 C 94.402344 26.253906 93.078125 26.429688 91.75 26 C 90.414062 25.082031 89.429688 23.773438 88.429688 22.515625 C 87.867188 21.839844 87.253906 21.234375 86.628906 20.625 C 86.207031 20.207031 85.816406 19.769531 85.4375 19.3125 C 84.703125 18.460938 83.925781 17.664062 83.125 16.875 C 82.332031 16.089844 81.554688 15.300781 80.828125 14.453125 C 79.933594 13.425781 78.964844 12.464844 78 11.5 C 77.917969 15.542969 77.835938 19.585938 77.75 23.75 C 77.667969 23.75 77.585938 23.75 77.5 23.75 C 77.5 18.304688 77.5 12.859375 77.5 7.25 Z M 77.5 7.25 "/>
</g>
</svg>
