<?xml version="1.0" encoding="UTF-8"?>
<svg xmlns="http://www.w3.org/2000/svg" xmlns:xlink="http://www.w3.org/1999/xlink" width="128px" height="px" viewBox="0 0 128 128" version="1.1">
<g id="surface1">
<path style=" stroke:none;fill-rule:nonzero;fill:rgb(12.54902%,12.156863%,15.686275%);fill-opacity:1;" d="M 71.75 2 C 73.992188 3.671875 73.992188 3.671875 74.882812 4.6875 C 75.886719 5.742188 76.636719 6.121094 78.097656 6.207031 C 78.722656 6.210938 79.347656 6.203125 79.972656 6.191406 C 80.308594 6.191406 80.644531 6.191406 80.980469 6.191406 C 81.867188 6.195312 82.75 6.1875 83.632812 6.179688 C 85.042969 6.164062 86.453125 6.15625 87.859375 6.160156 C 88.347656 6.160156 88.832031 6.152344 89.320312 6.144531 C 92.273438 6.136719 95.050781 6.664062 97.25 8.75 C 97.402344 8.894531 97.558594 9.039062 97.714844 9.1875 C 99.339844 10.863281 100.320312 12.96875 100.351562 15.316406 C 100.335938 15.867188 100.3125 16.421875 100.285156 16.972656 C 100.273438 17.585938 100.261719 18.195312 100.253906 18.808594 C 100.230469 19.753906 100.203125 20.703125 100.160156 21.652344 C 99.867188 25.53125 99.867188 25.53125 101.339844 28.964844 C 102.148438 29.785156 103.023438 30.46875 103.96875 31.121094 C 105.460938 32.1875 106.785156 33.5 108.125 34.75 C 108.992188 35.554688 109.855469 36.351562 110.75 37.125 C 111.792969 38.023438 112.796875 38.964844 113.804688 39.898438 C 114.527344 40.570312 115.253906 41.230469 116 41.875 C 116.894531 42.648438 117.757812 43.445312 118.625 44.25 C 120.554688 46.132812 120.554688 46.132812 122.671875 47.773438 C 123.40625 48.292969 123.914062 48.695312 124.164062 49.582031 C 124.222656 50.304688 124.230469 51.011719 124.21875 51.738281 C 124.21875 52.015625 124.222656 52.292969 124.222656 52.578125 C 124.230469 53.507812 124.222656 54.433594 124.214844 55.359375 C 124.214844 56.027344 124.21875 56.691406 124.21875 57.355469 C 124.226562 58.976562 124.21875 60.59375 124.214844 62.214844 C 124.203125 64.101562 124.203125 65.988281 124.207031 67.875 C 124.207031 71.246094 124.199219 74.617188 124.1875 77.988281 C 124.175781 81.253906 124.167969 84.519531 124.171875 87.785156 C 124.171875 91.914062 124.171875 96.039062 124.160156 100.167969 C 124.160156 101.480469 124.160156 102.796875 124.160156 104.109375 C 124.160156 105.710938 124.15625 107.316406 124.148438 108.921875 C 124.144531 109.738281 124.140625 110.554688 124.144531 111.371094 C 124.148438 116.511719 123.757812 120.53125 120.09375 124.425781 C 117.726562 126.707031 114.605469 128.027344 111.324219 128.035156 C 111.160156 128.035156 110.992188 128.035156 110.820312 128.035156 C 110.265625 128.035156 109.707031 128.035156 109.152344 128.035156 C 108.75 128.039062 108.34375 128.039062 107.941406 128.039062 C 106.832031 128.042969 105.726562 128.042969 104.617188 128.042969 C 103.421875 128.042969 102.226562 128.046875 101.03125 128.050781 C 98.144531 128.054688 95.257812 128.058594 92.371094 128.058594 C 91.011719 128.058594 89.652344 128.0625 88.292969 128.0625 C 83.773438 128.066406 79.253906 128.070312 74.734375 128.074219 C 73.558594 128.074219 72.386719 128.074219 71.214844 128.074219 C 70.921875 128.074219 70.632812 128.074219 70.332031 128.074219 C 65.609375 128.078125 60.886719 128.082031 56.167969 128.089844 C 51.316406 128.097656 46.46875 128.101562 41.621094 128.105469 C 38.898438 128.105469 36.175781 128.105469 33.453125 128.113281 C 31.136719 128.117188 28.816406 128.121094 26.5 128.117188 C 25.316406 128.117188 24.136719 128.117188 22.953125 128.121094 C 21.871094 128.128906 20.785156 128.125 19.703125 128.121094 C 19.3125 128.121094 18.921875 128.125 18.53125 128.125 C 14.207031 128.15625 10.742188 127.074219 7.574219 124.09375 C 5.464844 121.90625 3.984375 118.859375 3.960938 115.792969 C 3.957031 115.554688 3.957031 115.316406 3.953125 115.070312 C 3.953125 114.8125 3.949219 114.554688 3.949219 114.285156 C 3.949219 114.011719 3.945312 113.734375 3.941406 113.449219 C 3.933594 112.519531 3.929688 111.589844 3.925781 110.660156 C 3.921875 110.164062 3.917969 109.667969 3.914062 109.171875 C 3.867188 102.929688 3.84375 96.683594 3.824219 90.441406 C 3.820312 89.628906 3.820312 88.816406 3.816406 88.003906 C 3.816406 87.800781 3.816406 87.601562 3.8125 87.390625 C 3.804688 84.121094 3.78125 80.851562 3.753906 77.582031 C 3.726562 74.222656 3.710938 70.863281 3.707031 67.503906 C 3.703125 65.617188 3.695312 63.730469 3.675781 61.847656 C 3.65625 60.238281 3.648438 58.632812 3.65625 57.027344 C 3.65625 56.210938 3.652344 55.390625 3.640625 54.574219 C 3.554688 49.402344 3.554688 49.402344 4.65625 48.015625 C 5.359375 47.304688 6.148438 46.773438 7 46.25 C 7.335938 45.96875 7.664062 45.6875 7.984375 45.390625 C 8.140625 45.257812 8.292969 45.125 8.453125 44.984375 C 9.332031 44.203125 10.191406 43.402344 11.054688 42.601562 C 11.925781 41.792969 12.8125 41.003906 13.710938 40.226562 C 14.441406 39.578125 15.160156 38.914062 15.875 38.25 C 16.890625 37.308594 17.914062 36.382812 18.960938 35.476562 C 19.691406 34.828125 20.410156 34.164062 21.125 33.5 C 22 32.6875 22.878906 31.878906 23.78125 31.09375 C 23.921875 30.964844 24.0625 30.835938 24.207031 30.699219 C 24.75 30.25 24.75 30.25 25.4375 29.863281 C 26.589844 29.097656 27.347656 28.433594 27.648438 27.074219 C 27.867188 25.019531 27.789062 22.953125 27.734375 20.890625 C 27.71875 19.953125 27.707031 19.019531 27.703125 18.082031 C 27.695312 17.503906 27.6875 16.921875 27.667969 16.34375 C 27.625 13.273438 28.605469 10.980469 30.703125 8.773438 C 32.613281 6.953125 34.914062 6.207031 37.523438 6.234375 C 37.828125 6.238281 38.128906 6.238281 38.441406 6.242188 C 38.929688 6.246094 38.929688 6.246094 39.425781 6.25 C 40.117188 6.25 40.804688 6.25 41.496094 6.25 C 42.585938 6.246094 43.671875 6.25 44.757812 6.261719 C 45.640625 6.273438 46.519531 6.273438 47.402344 6.265625 C 47.898438 6.265625 48.390625 6.277344 48.886719 6.285156 C 50.625 6.265625 51.609375 6.078125 52.925781 4.898438 C 53.289062 4.519531 53.648438 4.136719 54 3.75 C 59.09375 -0.335938 65.953125 -1.652344 71.75 2 Z M 71.75 2 "/>
<path style=" stroke:none;fill-rule:nonzero;fill:rgb(90.980393%,91.764706%,93.333334%);fill-opacity:1;" d="M 36.753906 8.714844 C 36.949219 8.714844 37.148438 8.714844 37.351562 8.710938 C 37.570312 8.710938 37.785156 8.710938 38.007812 8.710938 C 38.238281 8.710938 38.46875 8.710938 38.707031 8.707031 C 39.484375 8.703125 40.257812 8.703125 41.035156 8.703125 C 41.589844 8.699219 42.144531 8.699219 42.699219 8.695312 C 44.523438 8.6875 46.347656 8.683594 48.171875 8.679688 C 48.800781 8.679688 49.429688 8.679688 50.058594 8.675781 C 52.671875 8.671875 55.285156 8.667969 57.902344 8.664062 C 58.578125 8.664062 59.257812 8.664062 59.933594 8.664062 C 60.101562 8.664062 60.269531 8.660156 60.445312 8.660156 C 63.171875 8.660156 65.902344 8.652344 68.628906 8.640625 C 71.433594 8.628906 74.234375 8.625 77.039062 8.621094 C 78.609375 8.621094 80.183594 8.617188 81.757812 8.609375 C 83.238281 8.601562 84.71875 8.601562 86.195312 8.605469 C 86.738281 8.605469 87.28125 8.601562 87.824219 8.597656 C 93.289062 8.554688 93.289062 8.554688 95.703125 10.59375 C 97.386719 12.613281 98.074219 14.15625 98.074219 16.8125 C 98.074219 17.042969 98.078125 17.273438 98.078125 17.511719 C 98.085938 18.285156 98.085938 19.058594 98.089844 19.828125 C 98.089844 20.382812 98.09375 20.9375 98.097656 21.492188 C 98.109375 23.308594 98.113281 25.125 98.117188 26.945312 C 98.121094 27.570312 98.125 28.195312 98.125 28.824219 C 98.132812 31.425781 98.140625 34.027344 98.144531 36.632812 C 98.144531 37.308594 98.148438 37.980469 98.148438 38.65625 C 98.148438 38.824219 98.148438 38.992188 98.148438 39.164062 C 98.152344 41.882812 98.164062 44.601562 98.179688 47.316406 C 98.199219 50.109375 98.207031 52.902344 98.207031 55.695312 C 98.210938 57.261719 98.214844 58.832031 98.226562 60.398438 C 98.238281 61.871094 98.242188 63.34375 98.234375 64.816406 C 98.234375 65.359375 98.238281 65.898438 98.246094 66.441406 C 98.253906 67.179688 98.25 67.917969 98.242188 68.65625 C 98.25 68.867188 98.253906 69.082031 98.261719 69.300781 C 98.242188 70.238281 98.183594 70.785156 97.5625 71.515625 C 97.058594 71.957031 96.542969 72.355469 96 72.75 C 94.511719 74.074219 93.042969 75.417969 91.578125 76.765625 C 90.898438 77.386719 90.214844 78.003906 89.515625 78.609375 C 88.617188 79.386719 87.746094 80.191406 86.875 81 C 85.851562 81.949219 84.820312 82.886719 83.761719 83.800781 C 82.660156 84.765625 81.582031 85.761719 80.5 86.75 C 79.75 86.414062 79.25 86.050781 78.6875 85.453125 C 77.933594 84.675781 77.144531 83.960938 76.324219 83.25 C 75.632812 82.648438 74.957031 82.027344 74.28125 81.40625 C 72.945312 80.179688 71.601562 78.960938 70.25 77.75 C 69.839844 77.378906 69.425781 77.011719 69.015625 76.640625 C 68.8125 76.457031 68.605469 76.273438 68.394531 76.085938 C 67.933594 75.667969 67.480469 75.242188 67.035156 74.8125 C 66.796875 74.585938 66.558594 74.359375 66.3125 74.125 C 66.097656 73.917969 65.882812 73.707031 65.660156 73.492188 C 64.902344 72.925781 64.441406 72.765625 63.5 72.75 C 62.996094 72.996094 62.996094 72.996094 62.59375 73.4375 C 62.425781 73.597656 62.257812 73.757812 62.082031 73.925781 C 61.890625 74.117188 61.699219 74.304688 61.5 74.5 C 61 74.960938 60.5 75.417969 60 75.875 C 59.738281 76.113281 59.476562 76.355469 59.21875 76.59375 C 58.65625 77.105469 58.089844 77.613281 57.515625 78.109375 C 56.617188 78.886719 55.746094 79.691406 54.875 80.5 C 53.855469 81.445312 52.832031 82.378906 51.777344 83.28125 C 51.339844 83.667969 50.917969 84.0625 50.496094 84.464844 C 50.363281 84.59375 50.230469 84.71875 50.09375 84.851562 C 49.828125 85.101562 49.5625 85.355469 49.300781 85.613281 C 48.535156 86.335938 48.351562 86.5 47.25 86.5 C 46.824219 86.207031 46.824219 86.207031 46.402344 85.796875 C 46.246094 85.648438 46.089844 85.496094 45.929688 85.34375 C 45.769531 85.183594 45.605469 85.023438 45.4375 84.859375 C 45.097656 84.535156 44.757812 84.207031 44.417969 83.882812 C 44.179688 83.652344 44.179688 83.652344 43.933594 83.414062 C 43.457031 82.957031 42.96875 82.523438 42.46875 82.09375 C 41.585938 81.332031 40.730469 80.542969 39.875 79.75 C 39.007812 78.945312 38.144531 78.148438 37.25 77.375 C 36.355469 76.601562 35.492188 75.804688 34.625 75 C 32.695312 73.042969 32.695312 73.042969 30.480469 71.492188 C 29.71875 70.714844 29.863281 69.8125 29.871094 68.78125 C 29.871094 68.550781 29.871094 68.320312 29.867188 68.082031 C 29.863281 67.308594 29.867188 66.539062 29.871094 65.765625 C 29.871094 65.210938 29.867188 64.65625 29.867188 64.105469 C 29.859375 62.597656 29.863281 61.09375 29.867188 59.589844 C 29.867188 58.015625 29.867188 56.441406 29.863281 54.867188 C 29.863281 52.050781 29.867188 49.234375 29.871094 46.417969 C 29.875 43.867188 29.875 41.316406 29.871094 38.769531 C 29.863281 35.804688 29.863281 32.84375 29.867188 29.882812 C 29.867188 28.3125 29.867188 26.746094 29.863281 25.179688 C 29.859375 23.703125 29.863281 22.226562 29.867188 20.753906 C 29.871094 20.210938 29.871094 19.671875 29.867188 19.128906 C 29.863281 18.390625 29.867188 17.648438 29.871094 16.910156 C 29.871094 16.699219 29.867188 16.484375 29.867188 16.265625 C 29.894531 14.039062 30.765625 12.316406 32.265625 10.699219 C 33.585938 9.472656 34.933594 8.722656 36.753906 8.714844 Z M 36.753906 8.714844 "/>
<path style=" stroke:none;fill-rule:nonzero;fill:rgb(99.607843%,74.901962%,13.725491%);fill-opacity:1;" d="M 63.75 75.25 C 64.613281 75.625 65.21875 76.128906 65.90625 76.765625 C 66.125 76.96875 66.347656 77.167969 66.574219 77.378906 C 66.796875 77.582031 67.019531 77.789062 67.25 78 C 67.65625 78.363281 68.0625 78.730469 68.46875 79.09375 C 69.410156 79.941406 70.347656 80.796875 71.28125 81.65625 C 72.089844 82.402344 72.902344 83.140625 73.734375 83.859375 C 74.78125 84.765625 75.792969 85.707031 76.804688 86.648438 C 77.527344 87.320312 78.253906 87.980469 79 88.625 C 80.042969 89.523438 81.046875 90.464844 82.054688 91.398438 C 82.777344 92.070312 83.503906 92.730469 84.25 93.375 C 85.277344 94.265625 86.273438 95.1875 87.269531 96.113281 C 88.5 97.253906 89.75 98.378906 91 99.5 C 91.417969 99.875 91.832031 100.25 92.25 100.625 C 92.867188 101.183594 93.488281 101.738281 94.109375 102.296875 C 95.253906 103.324219 96.394531 104.363281 97.53125 105.40625 C 98.339844 106.152344 99.152344 106.890625 99.984375 107.609375 C 101.03125 108.515625 102.042969 109.457031 103.054688 110.398438 C 103.777344 111.070312 104.503906 111.730469 105.25 112.375 C 106.144531 113.148438 107.007812 113.945312 107.875 114.75 C 108.894531 115.695312 109.925781 116.628906 110.980469 117.542969 C 111.78125 118.25 112.566406 118.972656 113.351562 119.699219 C 114.398438 120.660156 115.460938 121.601562 116.535156 122.53125 C 117 123 117 123 117.25 123.75 C 116.789062 123.992188 116.324219 124.230469 115.859375 124.46875 C 115.601562 124.601562 115.34375 124.734375 115.078125 124.875 C 113.640625 125.527344 112.351562 125.8125 110.777344 125.8125 C 110.613281 125.816406 110.449219 125.816406 110.277344 125.816406 C 109.726562 125.820312 109.175781 125.816406 108.628906 125.816406 C 108.226562 125.816406 107.828125 125.820312 107.429688 125.820312 C 106.332031 125.824219 105.238281 125.824219 104.140625 125.824219 C 102.957031 125.824219 101.773438 125.824219 100.589844 125.828125 C 98.273438 125.832031 95.957031 125.832031 93.640625 125.832031 C 91.757812 125.832031 89.871094 125.835938 87.988281 125.835938 C 82.648438 125.839844 77.304688 125.84375 71.960938 125.84375 C 71.675781 125.84375 71.386719 125.84375 71.089844 125.84375 C 70.800781 125.84375 70.511719 125.84375 70.214844 125.84375 C 65.542969 125.84375 60.875 125.847656 56.203125 125.855469 C 51.402344 125.863281 46.605469 125.863281 41.808594 125.863281 C 39.113281 125.863281 36.421875 125.867188 33.726562 125.871094 C 31.433594 125.875 29.140625 125.875 26.847656 125.875 C 25.679688 125.871094 24.507812 125.871094 23.339844 125.875 C 22.265625 125.878906 21.195312 125.878906 20.125 125.875 C 19.738281 125.875 19.351562 125.875 18.964844 125.878906 C 15.910156 125.898438 13.351562 125.40625 10.75 123.75 C 11.085938 122.996094 11.445312 122.503906 12.046875 121.949219 C 12.285156 121.730469 12.285156 121.730469 12.527344 121.507812 C 12.777344 121.277344 12.777344 121.277344 13.03125 121.046875 C 13.203125 120.890625 13.375 120.730469 13.550781 120.570312 C 14.511719 119.683594 15.488281 118.8125 16.476562 117.960938 C 17.207031 117.320312 17.914062 116.660156 18.625 116 C 19.640625 115.058594 20.664062 114.132812 21.710938 113.226562 C 22.441406 112.578125 23.160156 111.914062 23.875 111.25 C 24.890625 110.308594 25.914062 109.382812 26.960938 108.476562 C 27.691406 107.828125 28.410156 107.164062 29.125 106.5 C 30.140625 105.558594 31.164062 104.632812 32.210938 103.726562 C 32.941406 103.078125 33.660156 102.414062 34.375 101.75 C 35.390625 100.808594 36.414062 99.882812 37.460938 98.976562 C 38.191406 98.328125 38.910156 97.664062 39.625 97 C 40.640625 96.058594 41.664062 95.132812 42.710938 94.226562 C 43.441406 93.578125 44.160156 92.914062 44.875 92.25 C 45.890625 91.308594 46.914062 90.382812 47.960938 89.476562 C 48.691406 88.828125 49.410156 88.164062 50.125 87.5 C 51.140625 86.558594 52.164062 85.632812 53.210938 84.726562 C 53.941406 84.078125 54.660156 83.414062 55.375 82.75 C 56.390625 81.808594 57.410156 80.882812 58.460938 79.976562 C 59.34375 79.199219 60.203125 78.390625 61.0625 77.585938 C 61.9375 76.777344 62.828125 76.003906 63.75 75.25 Z M 63.75 75.25 "/>
<path style=" stroke:none;fill-rule:nonzero;fill:rgb(96.862745%,61.56863%,14.901961%);fill-opacity:1;" d="M 6.25 52.25 C 6.527344 52.484375 6.800781 52.722656 7.078125 52.957031 C 7.234375 53.089844 7.386719 53.222656 7.546875 53.355469 C 8.195312 53.917969 8.824219 54.496094 9.453125 55.078125 C 10.792969 56.3125 12.144531 57.535156 13.5 58.75 C 14.851562 59.960938 16.195312 61.179688 17.53125 62.40625 C 18.339844 63.152344 19.152344 63.890625 19.984375 64.609375 C 21.03125 65.515625 22.042969 66.457031 23.054688 67.398438 C 23.777344 68.070312 24.503906 68.730469 25.25 69.375 C 26.554688 70.503906 27.816406 71.6875 29.082031 72.863281 C 31.039062 74.675781 33.015625 76.46875 35 78.25 C 36.351562 79.460938 37.695312 80.679688 39.03125 81.90625 C 39.839844 82.652344 40.652344 83.390625 41.484375 84.109375 C 42.414062 84.917969 43.335938 85.738281 44.25 86.5625 C 44.472656 86.757812 44.472656 86.757812 44.695312 86.957031 C 45.0625 87.289062 45.40625 87.644531 45.75 88 C 45.75 88.75 45.75 88.75 45.109375 89.417969 C 44.824219 89.675781 44.539062 89.933594 44.25 90.1875 C 44.101562 90.324219 43.949219 90.457031 43.796875 90.597656 C 42.878906 91.421875 41.953125 92.234375 41.023438 93.039062 C 40.339844 93.640625 39.667969 94.257812 39 94.875 C 38.179688 95.628906 37.359375 96.378906 36.515625 97.109375 C 35.46875 98.015625 34.457031 98.957031 33.445312 99.898438 C 32.722656 100.570312 31.996094 101.230469 31.25 101.875 C 30.222656 102.765625 29.226562 103.691406 28.230469 104.613281 C 27.207031 105.5625 26.171875 106.496094 25.132812 107.429688 C 24.40625 108.082031 23.6875 108.746094 22.96875 109.40625 C 22.160156 110.152344 21.347656 110.890625 20.515625 111.609375 C 19.484375 112.503906 18.484375 113.433594 17.480469 114.363281 C 16.25 115.503906 15 116.628906 13.75 117.75 C 13.324219 118.136719 12.894531 118.519531 12.46875 118.90625 C 11.40625 119.863281 10.332031 120.8125 9.25 121.75 C 8.207031 121.378906 7.933594 120.800781 7.46875 119.828125 C 7.34375 119.574219 7.21875 119.320312 7.09375 119.058594 C 6.332031 117.261719 6.179688 115.785156 6.191406 113.851562 C 6.1875 113.585938 6.1875 113.324219 6.1875 113.050781 C 6.1875 112.167969 6.191406 111.285156 6.191406 110.402344 C 6.195312 109.769531 6.191406 109.136719 6.191406 108.503906 C 6.191406 107.140625 6.195312 105.777344 6.195312 104.417969 C 6.203125 102.445312 6.203125 100.476562 6.203125 98.507812 C 6.203125 95.308594 6.207031 92.113281 6.210938 88.917969 C 6.21875 85.8125 6.21875 82.707031 6.222656 79.605469 C 6.222656 79.414062 6.222656 79.222656 6.222656 79.023438 C 6.222656 78.0625 6.222656 77.101562 6.226562 76.144531 C 6.230469 68.179688 6.238281 60.214844 6.25 52.25 Z M 6.25 52.25 "/>
<path style=" stroke:none;fill-rule:nonzero;fill:rgb(97.254902%,61.56863%,14.901961%);fill-opacity:1;" d="M 121.75 52.5 C 121.773438 60.566406 121.789062 68.632812 121.800781 76.699219 C 121.800781 77.652344 121.804688 78.605469 121.804688 79.558594 C 121.804688 79.75 121.804688 79.9375 121.804688 80.132812 C 121.808594 83.203125 121.816406 86.269531 121.828125 89.339844 C 121.835938 92.492188 121.84375 95.640625 121.84375 98.792969 C 121.84375 100.734375 121.851562 102.679688 121.859375 104.621094 C 121.863281 106.113281 121.863281 107.605469 121.863281 109.097656 C 121.863281 109.710938 121.867188 110.320312 121.871094 110.929688 C 121.894531 115.011719 121.855469 118.390625 119.25 121.75 C 118.28125 121.347656 117.59375 120.695312 116.84375 119.984375 C 116.574219 119.734375 116.308594 119.484375 116.039062 119.234375 C 115.90625 119.109375 115.773438 118.988281 115.636719 118.859375 C 115.085938 118.347656 114.527344 117.84375 113.96875 117.34375 C 113.765625 117.160156 113.5625 116.980469 113.355469 116.792969 C 113.15625 116.613281 112.957031 116.433594 112.75 116.25 C 111.28125 114.933594 109.820312 113.609375 108.367188 112.273438 C 107.167969 111.171875 105.960938 110.085938 104.75 109 C 103.398438 107.789062 102.054688 106.570312 100.71875 105.34375 C 99.902344 104.59375 99.085938 103.851562 98.25 103.125 C 97.28125 102.285156 96.335938 101.417969 95.390625 100.546875 C 94.1875 99.4375 92.96875 98.34375 91.75 97.25 C 90.398438 96.039062 89.054688 94.820312 87.71875 93.59375 C 86.738281 92.691406 85.746094 91.800781 84.738281 90.925781 C 83.820312 90.125 82.910156 89.3125 82 88.5 C 83.011719 87.25 84.097656 86.179688 85.304688 85.117188 C 86.054688 84.449219 86.792969 83.773438 87.53125 83.09375 C 88.339844 82.347656 89.152344 81.609375 89.984375 80.890625 C 91.03125 79.984375 92.042969 79.042969 93.054688 78.101562 C 93.925781 77.296875 94.804688 76.507812 95.703125 75.734375 C 96.167969 75.320312 96.625 74.902344 97.078125 74.476562 C 97.222656 74.339844 97.371094 74.203125 97.523438 74.0625 C 97.816406 73.785156 98.109375 73.507812 98.402344 73.226562 C 99.445312 72.25 99.445312 72.25 100 72.25 C 100 72.085938 100 71.921875 100 71.75 C 100.324219 71.421875 100.324219 71.421875 100.796875 71.03125 C 101.75 70.21875 102.675781 69.382812 103.59375 68.53125 C 104.96875 67.257812 106.355469 66 107.75 64.75 C 109.101562 63.539062 110.445312 62.320312 111.78125 61.09375 C 112.589844 60.347656 113.402344 59.609375 114.234375 58.890625 C 115.277344 57.984375 116.289062 57.046875 117.300781 56.105469 C 118.21875 55.253906 119.152344 54.417969 120.101562 53.601562 C 120.511719 53.25 120.511719 53.25 120.898438 52.828125 C 121.25 52.5 121.25 52.5 121.75 52.5 Z M 121.75 52.5 "/>
<path style=" stroke:none;fill-rule:nonzero;fill:rgb(91.37255%,44.705883%,45.490196%);fill-opacity:1;" d="M 52.953125 23.375 C 53.441406 23.363281 53.441406 23.363281 53.941406 23.351562 C 56.925781 23.617188 58.832031 25.929688 60.78125 27.953125 C 61.070312 28.25 61.359375 28.542969 61.648438 28.839844 C 62.355469 29.554688 63.054688 30.277344 63.75 31 C 64.71875 30.605469 65.300781 29.988281 66.015625 29.238281 C 66.265625 28.984375 66.511719 28.726562 66.757812 28.472656 C 67.144531 28.074219 67.527344 27.675781 67.910156 27.273438 C 69.667969 25.429688 71.3125 23.769531 73.929688 23.351562 C 77.238281 23.445312 78.925781 24.085938 81.25 26.5 C 82.761719 28.28125 83.445312 29.894531 83.339844 32.257812 C 83.007812 34.988281 81.371094 36.628906 79.5 38.5 C 79.242188 38.757812 79.242188 38.757812 78.980469 39.023438 C 77.828125 40.1875 76.667969 41.347656 75.5 42.5 C 76.332031 43.511719 77.1875 44.449219 78.132812 45.355469 C 78.335938 45.550781 78.539062 45.746094 78.746094 45.945312 C 79.164062 46.34375 79.582031 46.738281 80.003906 47.132812 C 81.71875 48.796875 83.246094 50.777344 83.40625 53.25 C 83.195312 56.066406 82.09375 58.125 80 60 C 78.484375 61.148438 77.03125 61.824219 75.109375 61.875 C 74.832031 61.886719 74.550781 61.902344 74.265625 61.914062 C 71.1875 61.625 69.0625 59.253906 67.0625 57.15625 C 66.789062 56.875 66.511719 56.589844 66.234375 56.308594 C 65.570312 55.628906 64.910156 54.941406 64.25 54.25 C 63.304688 54.636719 62.738281 55.222656 62.039062 55.957031 C 61.800781 56.203125 61.566406 56.445312 61.328125 56.6875 C 60.960938 57.070312 60.597656 57.449219 60.234375 57.832031 C 58.175781 60 56.121094 61.734375 53.015625 61.859375 C 50.667969 61.835938 48.851562 60.886719 47.140625 59.3125 C 45.460938 57.496094 44.601562 55.320312 44.660156 52.863281 C 44.984375 49.773438 47.351562 47.707031 49.46875 45.6875 C 49.761719 45.402344 50.058594 45.113281 50.351562 44.824219 C 51.0625 44.128906 51.78125 43.4375 52.5 42.75 C 51.109375 41.0625 49.558594 39.5625 47.976562 38.050781 C 46.023438 36.140625 44.757812 34.367188 44.671875 31.578125 C 44.710938 28.878906 46.085938 27.132812 47.941406 25.320312 C 49.464844 23.921875 50.882812 23.390625 52.953125 23.375 Z M 52.953125 23.375 "/>
<path style=" stroke:none;fill-rule:nonzero;fill:rgb(97.254902%,69.01961%,7.843138%);fill-opacity:1;" d="M 109.75 116.5 C 110.976562 117.53125 112.164062 118.597656 113.339844 119.683594 C 114.386719 120.652344 115.457031 121.597656 116.535156 122.53125 C 117 123 117 123 117.25 123.75 C 116.789062 123.992188 116.324219 124.230469 115.859375 124.46875 C 115.472656 124.667969 115.472656 124.667969 115.078125 124.875 C 113.640625 125.527344 112.351562 125.8125 110.777344 125.8125 C 110.613281 125.816406 110.449219 125.816406 110.277344 125.816406 C 109.726562 125.820312 109.175781 125.816406 108.628906 125.816406 C 108.226562 125.816406 107.828125 125.820312 107.429688 125.820312 C 106.332031 125.824219 105.238281 125.824219 104.140625 125.824219 C 102.957031 125.824219 101.773438 125.824219 100.589844 125.828125 C 98.273438 125.832031 95.957031 125.832031 93.640625 125.832031 C 91.757812 125.832031 89.871094 125.835938 87.988281 125.835938 C 82.648438 125.839844 77.304688 125.84375 71.960938 125.84375 C 71.675781 125.84375 71.386719 125.84375 71.089844 125.84375 C 70.800781 125.84375 70.511719 125.84375 70.214844 125.84375 C 65.542969 125.84375 60.875 125.847656 56.203125 125.855469 C 51.402344 125.863281 46.605469 125.863281 41.808594 125.863281 C 39.113281 125.863281 36.421875 125.867188 33.726562 125.871094 C 31.433594 125.875 29.140625 125.875 26.847656 125.875 C 25.679688 125.871094 24.507812 125.871094 23.339844 125.875 C 22.265625 125.878906 21.195312 125.878906 20.125 125.875 C 19.738281 125.875 19.351562 125.875 18.964844 125.878906 C 15.910156 125.898438 13.351562 125.40625 10.75 123.75 C 11.6875 121.800781 13.027344 120.207031 15 119.25 C 17.566406 118.628906 20.308594 118.792969 22.933594 118.835938 C 24.019531 118.851562 25.105469 118.84375 26.191406 118.839844 C 28.070312 118.835938 29.949219 118.847656 31.824219 118.863281 C 34.546875 118.890625 37.265625 118.894531 39.984375 118.894531 C 44.402344 118.894531 48.820312 118.910156 53.234375 118.933594 C 57.515625 118.957031 61.796875 118.976562 66.078125 118.988281 C 66.34375 118.992188 66.605469 118.992188 66.878906 118.992188 C 69.761719 119 72.640625 119.007812 75.523438 119.011719 C 75.777344 119.011719 76.03125 119.011719 76.292969 119.011719 C 77.304688 119.015625 78.320312 119.015625 79.332031 119.019531 C 82.296875 119.023438 85.257812 119.03125 88.21875 119.050781 C 90.078125 119.058594 91.9375 119.066406 93.796875 119.074219 C 94.867188 119.078125 95.9375 119.082031 97.007812 119.089844 C 97.988281 119.101562 98.972656 119.105469 99.953125 119.105469 C 100.308594 119.105469 100.660156 119.109375 101.011719 119.113281 C 104.054688 119.152344 106.65625 118.613281 109.25 117 C 109.414062 117 109.578125 117 109.75 117 C 109.75 116.835938 109.75 116.671875 109.75 116.5 Z M 109.75 116.5 "/>
<path style=" stroke:none;fill-rule:nonzero;fill:rgb(96.862745%,48.627451%,7.058824%);fill-opacity:1;" d="M 121.75 52.5 C 121.773438 60.566406 121.789062 68.632812 121.800781 76.699219 C 121.800781 77.652344 121.804688 78.605469 121.804688 79.558594 C 121.804688 79.75 121.804688 79.9375 121.804688 80.132812 C 121.808594 83.203125 121.816406 86.269531 121.828125 89.339844 C 121.835938 92.492188 121.84375 95.640625 121.84375 98.792969 C 121.84375 100.734375 121.851562 102.679688 121.859375 104.621094 C 121.863281 106.113281 121.863281 107.605469 121.863281 109.097656 C 121.863281 109.710938 121.867188 110.320312 121.871094 110.929688 C 121.894531 115.011719 121.855469 118.390625 119.25 121.75 C 118.28125 121.347656 117.59375 120.695312 116.84375 119.984375 C 116.578125 119.734375 116.3125 119.488281 116.042969 119.238281 C 115.84375 119.054688 115.84375 119.054688 115.640625 118.863281 C 115.066406 118.328125 114.476562 117.804688 113.890625 117.28125 C 113.066406 116.542969 112.269531 115.792969 111.5 115 C 111.597656 114.867188 111.695312 114.734375 111.792969 114.59375 C 113.554688 112.074219 114.304688 109.777344 114.261719 106.695312 C 114.261719 106.492188 114.257812 106.292969 114.257812 106.082031 C 114.253906 105.640625 114.25 105.195312 114.246094 104.753906 C 114.234375 103.777344 114.226562 102.804688 114.21875 101.832031 C 114.214844 101.304688 114.210938 100.78125 114.207031 100.257812 C 114.179688 96.886719 114.171875 93.519531 114.164062 90.148438 C 114.15625 86.871094 114.140625 83.589844 114.105469 80.3125 C 114.078125 77.707031 114.0625 75.101562 114.066406 72.492188 C 114.066406 71.117188 114.0625 69.738281 114.039062 68.359375 C 114.015625 67.0625 114.015625 65.765625 114.027344 64.464844 C 114.027344 63.992188 114.019531 63.519531 114.007812 63.046875 C 113.953125 61.003906 113.945312 59.265625 115.351562 57.667969 C 116.175781 56.851562 117.050781 56.121094 117.96875 55.414062 C 118.996094 54.613281 120.011719 53.769531 120.902344 52.824219 C 121.25 52.5 121.25 52.5 121.75 52.5 Z M 121.75 52.5 "/>
<path style=" stroke:none;fill-rule:nonzero;fill:rgb(81.960785%,82.352942%,84.313726%);fill-opacity:1;" d="M 30 14.5 C 30.082031 14.5 30.164062 14.5 30.25 14.5 C 30.25 14.757812 30.246094 15.011719 30.242188 15.277344 C 30.199219 21.511719 30.171875 27.75 30.167969 33.988281 C 30.164062 37.003906 30.152344 40.019531 30.128906 43.035156 C 30.109375 45.664062 30.097656 48.296875 30.101562 50.925781 C 30.105469 52.316406 30.101562 53.707031 30.082031 55.101562 C 30.066406 56.414062 30.066406 57.722656 30.078125 59.035156 C 30.078125 59.515625 30.074219 59.996094 30.0625 60.472656 C 29.976562 63.316406 29.976562 63.316406 31.273438 65.75 C 31.996094 66.46875 32.773438 67.101562 33.597656 67.703125 C 34.097656 68.070312 34.554688 68.476562 35.015625 68.890625 C 35.242188 69.085938 35.242188 69.085938 35.46875 69.28125 C 36.199219 69.925781 36.910156 70.589844 37.625 71.25 C 38.492188 72.054688 39.355469 72.851562 40.25 73.625 C 41.132812 74.386719 41.988281 75.175781 42.84375 75.96875 C 42.984375 76.097656 43.121094 76.226562 43.265625 76.359375 C 43.921875 76.964844 44.574219 77.570312 45.21875 78.183594 C 45.542969 78.488281 45.542969 78.488281 45.875 78.796875 C 46.0625 78.976562 46.25 79.15625 46.445312 79.339844 C 47.078125 79.808594 47.457031 79.984375 48.25 80 C 48.765625 79.65625 48.765625 79.65625 49.203125 79.125 C 49.84375 78.4375 50.472656 77.78125 51.1875 77.171875 C 52.046875 76.433594 52.886719 75.671875 53.71875 74.90625 C 55.253906 73.496094 56.804688 72.097656 58.355469 70.707031 C 58.558594 70.523438 58.761719 70.34375 58.96875 70.15625 C 59.273438 69.882812 59.273438 69.882812 59.585938 69.601562 C 60.074219 69.160156 60.554688 68.710938 61.03125 68.257812 C 61.230469 68.066406 61.230469 68.066406 61.433594 67.875 C 61.691406 67.628906 61.945312 67.382812 62.199219 67.136719 C 62.925781 66.449219 63.476562 65.972656 64.5 66 C 65.042969 66.40625 65.042969 66.40625 65.578125 67 C 66.265625 67.734375 66.9375 68.441406 67.703125 69.09375 C 68.558594 69.828125 69.390625 70.582031 70.21875 71.34375 C 71.554688 72.570312 72.898438 73.789062 74.25 75 C 74.65625 75.363281 75.0625 75.730469 75.46875 76.09375 C 75.671875 76.277344 75.875 76.457031 76.085938 76.644531 C 76.578125 77.09375 77.054688 77.546875 77.53125 78.011719 C 77.664062 78.140625 77.796875 78.265625 77.933594 78.398438 C 78.191406 78.648438 78.449219 78.902344 78.699219 79.160156 C 79.28125 79.714844 79.59375 80 80.414062 80 C 81.046875 79.730469 81.367188 79.476562 81.828125 78.96875 C 82.421875 78.339844 83.015625 77.75 83.671875 77.1875 C 84.535156 76.441406 85.378906 75.679688 86.21875 74.90625 C 87.339844 73.875 88.472656 72.847656 89.609375 71.828125 C 90.335938 71.171875 91.058594 70.507812 91.78125 69.84375 C 92.613281 69.078125 93.445312 68.320312 94.296875 67.578125 C 94.441406 67.449219 94.582031 67.316406 94.730469 67.183594 C 95.25 66.75 95.25 66.75 95.824219 66.402344 C 96.660156 65.835938 97.347656 65.292969 97.628906 64.285156 C 97.847656 62.835938 97.796875 61.371094 97.777344 59.910156 C 97.78125 59.414062 97.78125 58.917969 97.785156 58.425781 C 97.792969 57.082031 97.789062 55.742188 97.777344 54.398438 C 97.773438 52.996094 97.777344 51.59375 97.78125 50.191406 C 97.789062 47.535156 97.78125 44.878906 97.773438 42.226562 C 97.761719 39.203125 97.765625 36.179688 97.769531 33.15625 C 97.777344 26.9375 97.769531 20.71875 97.75 14.5 C 97.832031 14.5 97.914062 14.5 98 14.5 C 98.046875 21.667969 98.082031 28.835938 98.101562 36.003906 C 98.105469 36.851562 98.105469 37.695312 98.109375 38.542969 C 98.109375 38.710938 98.109375 38.878906 98.113281 39.054688 C 98.121094 41.78125 98.136719 44.507812 98.15625 47.238281 C 98.171875 50.035156 98.183594 52.835938 98.1875 55.636719 C 98.191406 57.207031 98.195312 58.777344 98.210938 60.351562 C 98.226562 61.832031 98.230469 63.3125 98.226562 64.789062 C 98.226562 65.332031 98.230469 65.875 98.238281 66.417969 C 98.25 67.160156 98.246094 67.902344 98.242188 68.644531 C 98.246094 68.859375 98.253906 69.074219 98.257812 69.296875 C 98.238281 70.234375 98.183594 70.785156 97.5625 71.515625 C 97.058594 71.957031 96.542969 72.355469 96 72.75 C 94.511719 74.074219 93.042969 75.417969 91.578125 76.765625 C 90.898438 77.386719 90.214844 78.003906 89.515625 78.609375 C 88.617188 79.386719 87.746094 80.191406 86.875 81 C 85.851562 81.949219 84.820312 82.886719 83.765625 83.800781 C 82.660156 84.765625 81.582031 85.761719 80.5 86.75 C 79.75 86.414062 79.25 86.050781 78.6875 85.453125 C 77.933594 84.675781 77.144531 83.960938 76.324219 83.25 C 75.632812 82.648438 74.957031 82.027344 74.28125 81.40625 C 72.945312 80.179688 71.601562 78.960938 70.25 77.75 C 69.839844 77.378906 69.425781 77.011719 69.015625 76.640625 C 68.8125 76.457031 68.605469 76.273438 68.394531 76.085938 C 67.933594 75.667969 67.480469 75.242188 67.035156 74.8125 C 66.796875 74.585938 66.558594 74.359375 66.3125 74.125 C 66.097656 73.917969 65.882812 73.707031 65.660156 73.492188 C 64.902344 72.925781 64.441406 72.765625 63.5 72.75 C 62.996094 72.996094 62.996094 72.996094 62.59375 73.4375 C 62.425781 73.597656 62.257812 73.757812 62.085938 73.925781 C 61.890625 74.117188 61.699219 74.304688 61.5 74.5 C 61 74.960938 60.5 75.417969 60 75.875 C 59.738281 76.113281 59.476562 76.355469 59.21875 76.59375 C 58.65625 77.105469 58.089844 77.613281 57.515625 78.109375 C 56.617188 78.886719 55.746094 79.691406 54.875 80.5 C 53.855469 81.445312 52.832031 82.378906 51.777344 83.28125 C 51.339844 83.667969 50.917969 84.0625 50.496094 84.46875 C 50.363281 84.59375 50.230469 84.71875 50.09375 84.851562 C 49.828125 85.101562 49.5625 85.355469 49.300781 85.613281 C 48.535156 86.335938 48.351562 86.5 47.25 86.5 C 46.824219 86.207031 46.824219 86.207031 46.402344 85.796875 C 46.246094 85.648438 46.089844 85.496094 45.929688 85.34375 C 45.769531 85.183594 45.605469 85.023438 45.4375 84.859375 C 45.097656 84.535156 44.757812 84.207031 44.421875 83.882812 C 44.179688 83.652344 44.179688 83.652344 43.933594 83.414062 C 43.457031 82.957031 42.96875 82.523438 42.46875 82.09375 C 41.585938 81.332031 40.730469 80.542969 39.875 79.75 C 39.007812 78.945312 38.144531 78.148438 37.25 77.375 C 36.355469 76.601562 35.492188 75.804688 34.625 75 C 32.699219 73.042969 32.699219 73.042969 30.480469 71.492188 C 29.84375 70.839844 29.878906 70.308594 29.871094 69.425781 C 29.875 69.207031 29.875 68.988281 29.878906 68.765625 C 29.878906 68.535156 29.878906 68.300781 29.878906 68.0625 C 29.875 67.285156 29.882812 66.507812 29.886719 65.726562 C 29.886719 65.171875 29.886719 64.613281 29.886719 64.058594 C 29.886719 62.542969 29.890625 61.03125 29.898438 59.515625 C 29.90625 57.933594 29.90625 56.351562 29.90625 54.769531 C 29.910156 52.113281 29.914062 49.460938 29.925781 46.804688 C 29.933594 44.070312 29.941406 41.332031 29.945312 38.597656 C 29.945312 38.429688 29.945312 38.261719 29.945312 38.085938 C 29.945312 37.242188 29.949219 36.394531 29.949219 35.550781 C 29.960938 28.535156 29.976562 21.515625 30 14.5 Z M 30 14.5 "/>
<path style=" stroke:none;fill-rule:nonzero;fill:rgb(99.607843%,89.019608%,36.470589%);fill-opacity:1;" d="M 27.75 31 C 27.75 43.375 27.75 55.75 27.75 68.5 C 26.84375 67.957031 26.25 67.566406 25.519531 66.863281 C 25.339844 66.691406 25.160156 66.523438 24.976562 66.347656 C 24.792969 66.171875 24.609375 65.996094 24.421875 65.8125 C 23.207031 64.648438 21.984375 63.503906 20.710938 62.402344 C 20.054688 61.832031 19.417969 61.246094 18.78125 60.65625 C 17.445312 59.425781 16.101562 58.210938 14.75 57 C 13.269531 55.671875 11.796875 54.339844 10.335938 52.992188 C 9.445312 52.167969 8.53125 51.386719 7.582031 50.632812 C 7.25 50.25 7.25 50.25 7.25 49.25 C 7.582031 48.867188 7.582031 48.867188 8.0625 48.484375 C 8.984375 47.722656 9.875 46.9375 10.75 46.125 C 11.570312 45.371094 12.390625 44.621094 13.234375 43.890625 C 14.28125 42.984375 15.292969 42.042969 16.304688 41.101562 C 17.175781 40.292969 18.0625 39.503906 18.960938 38.726562 C 19.691406 38.078125 20.410156 37.414062 21.125 36.75 C 22.148438 35.800781 23.179688 34.863281 24.238281 33.949219 C 25.15625 33.144531 26.046875 32.3125 26.945312 31.484375 C 27.5 31 27.5 31 27.75 31 Z M 27.75 31 "/>
<path style=" stroke:none;fill-rule:nonzero;fill:rgb(99.215686%,89.019608%,36.470589%);fill-opacity:1;" d="M 100.25 31 C 102.21875 32.6875 104.15625 34.386719 106.054688 36.148438 C 106.777344 36.816406 107.503906 37.480469 108.25 38.125 C 109.292969 39.023438 110.296875 39.964844 111.304688 40.898438 C 112.027344 41.570312 112.753906 42.230469 113.5 42.875 C 114.394531 43.648438 115.257812 44.445312 116.125 45.25 C 117.707031 46.71875 119.296875 48.171875 121 49.5 C 120.664062 50.253906 120.304688 50.746094 119.703125 51.300781 C 119.464844 51.519531 119.464844 51.519531 119.222656 51.742188 C 119.058594 51.894531 118.890625 52.046875 118.71875 52.203125 C 118.546875 52.359375 118.375 52.519531 118.199219 52.679688 C 117.230469 53.570312 116.25 54.449219 115.253906 55.308594 C 114.585938 55.894531 113.933594 56.492188 113.28125 57.09375 C 111.746094 58.503906 110.195312 59.902344 108.644531 61.292969 C 107.496094 62.324219 106.355469 63.363281 105.21875 64.40625 C 100.761719 68.5 100.761719 68.5 100.25 68.5 C 100.25 56.125 100.25 43.75 100.25 31 Z M 100.25 31 "/>
<path style=" stroke:none;fill-rule:nonzero;fill:rgb(13.333334%,12.941177%,16.862746%);fill-opacity:1;" d="M 52.953125 23.375 C 53.441406 23.363281 53.441406 23.363281 53.941406 23.351562 C 56.925781 23.617188 58.832031 25.929688 60.78125 27.953125 C 61.070312 28.25 61.359375 28.542969 61.648438 28.839844 C 62.355469 29.554688 63.054688 30.277344 63.75 31 C 64.71875 30.605469 65.300781 29.988281 66.015625 29.238281 C 66.265625 28.984375 66.511719 28.726562 66.757812 28.472656 C 67.144531 28.074219 67.527344 27.675781 67.910156 27.273438 C 69.667969 25.429688 71.3125 23.769531 73.929688 23.351562 C 77.238281 23.445312 78.925781 24.085938 81.25 26.5 C 82.761719 28.28125 83.445312 29.894531 83.339844 32.257812 C 83.007812 34.988281 81.371094 36.628906 79.5 38.5 C 79.242188 38.757812 79.242188 38.757812 78.980469 39.023438 C 77.828125 40.1875 76.667969 41.347656 75.5 42.5 C 76.332031 43.511719 77.1875 44.449219 78.132812 45.355469 C 78.335938 45.550781 78.539062 45.746094 78.746094 45.945312 C 79.164062 46.34375 79.582031 46.738281 80.003906 47.132812 C 81.71875 48.796875 83.246094 50.777344 83.40625 53.25 C 83.195312 56.066406 82.09375 58.125 80 60 C 78.484375 61.148438 77.03125 61.824219 75.109375 61.875 C 74.832031 61.886719 74.550781 61.902344 74.265625 61.914062 C 71.1875 61.625 69.0625 59.253906 67.0625 57.15625 C 66.789062 56.875 66.511719 56.589844 66.234375 56.308594 C 65.570312 55.628906 64.910156 54.941406 64.25 54.25 C 63.304688 54.636719 62.738281 55.222656 62.039062 55.957031 C 61.800781 56.203125 61.566406 56.445312 61.328125 56.6875 C 60.960938 57.070312 60.597656 57.449219 60.234375 57.832031 C 58.175781 60 56.121094 61.734375 53.015625 61.859375 C 50.667969 61.835938 48.851562 60.886719 47.140625 59.3125 C 45.460938 57.496094 44.601562 55.320312 44.660156 52.863281 C 44.984375 49.773438 47.351562 47.707031 49.46875 45.6875 C 49.761719 45.402344 50.058594 45.113281 50.351562 44.824219 C 51.0625 44.128906 51.78125 43.4375 52.5 42.75 C 51.109375 41.0625 49.558594 39.5625 47.976562 38.050781 C 46.023438 36.140625 44.757812 34.367188 44.671875 31.578125 C 44.710938 28.878906 46.085938 27.132812 47.941406 25.320312 C 49.464844 23.921875 50.882812 23.390625 52.953125 23.375 Z M 47.953125 28.609375 C 47.0625 29.871094 46.769531 31.222656 47 32.75 C 47.550781 34.3125 48.5 35.367188 49.691406 36.476562 C 50.019531 36.796875 50.347656 37.113281 50.675781 37.429688 C 51.191406 37.921875 51.707031 38.410156 52.226562 38.898438 C 52.730469 39.375 53.226562 39.855469 53.722656 40.335938 C 53.878906 40.484375 54.035156 40.628906 54.199219 40.777344 C 55.230469 41.78125 55.230469 41.78125 55.320312 42.75 C 54.878906 43.785156 54.230469 44.40625 53.414062 45.171875 C 53.179688 45.402344 53.179688 45.402344 52.933594 45.640625 C 52.429688 46.132812 51.917969 46.621094 51.40625 47.109375 C 50.898438 47.597656 50.386719 48.085938 49.882812 48.578125 C 49.570312 48.882812 49.253906 49.183594 48.933594 49.484375 C 47.832031 50.558594 47.175781 51.546875 46.890625 53.09375 C 46.886719 55.109375 47.589844 56.382812 48.96875 57.828125 C 50.496094 59.253906 51.636719 59.582031 53.703125 59.648438 C 55.539062 59.308594 56.878906 57.972656 58.117188 56.652344 C 58.414062 56.347656 58.707031 56.042969 59 55.742188 C 59.457031 55.265625 59.910156 54.792969 60.363281 54.316406 C 60.804688 53.851562 61.25 53.390625 61.695312 52.933594 C 61.832031 52.789062 61.964844 52.644531 62.101562 52.496094 C 62.703125 51.882812 63.152344 51.523438 63.992188 51.3125 C 65.109375 51.589844 65.660156 52.234375 66.429688 53.058594 C 66.664062 53.296875 66.664062 53.296875 66.898438 53.542969 C 67.394531 54.050781 67.886719 54.5625 68.375 55.078125 C 68.863281 55.589844 69.355469 56.097656 69.851562 56.605469 C 70.15625 56.921875 70.460938 57.238281 70.761719 57.558594 C 71.765625 58.597656 72.707031 59.375 74.179688 59.609375 C 76.414062 59.613281 77.703125 59.070312 79.328125 57.546875 C 80.59375 56.199219 81.070312 54.953125 81.125 53.125 C 80.757812 51.28125 79.648438 50.015625 78.316406 48.761719 C 77.988281 48.445312 77.660156 48.125 77.335938 47.808594 C 76.820312 47.316406 76.308594 46.824219 75.792969 46.332031 C 75.292969 45.851562 74.796875 45.371094 74.300781 44.886719 C 74.144531 44.742188 73.988281 44.597656 73.828125 44.445312 C 73.226562 43.855469 72.808594 43.4375 72.554688 42.625 C 72.863281 41.628906 73.550781 41.0625 74.300781 40.363281 C 74.460938 40.207031 74.617188 40.054688 74.78125 39.894531 C 75.289062 39.402344 75.800781 38.910156 76.3125 38.421875 C 76.820312 37.933594 77.328125 37.449219 77.832031 36.957031 C 78.148438 36.652344 78.460938 36.351562 78.78125 36.050781 C 80.019531 34.847656 81.003906 33.527344 81.109375 31.75 C 81.003906 29.925781 80.269531 28.550781 79 27.25 C 77.714844 26.203125 76.75 25.710938 75.0625 25.671875 C 74.8125 25.664062 74.558594 25.652344 74.300781 25.644531 C 72.480469 25.886719 71.304688 27.101562 70.101562 28.378906 C 69.792969 28.695312 69.488281 29.011719 69.179688 29.328125 C 68.707031 29.820312 68.230469 30.316406 67.757812 30.8125 C 67.296875 31.296875 66.832031 31.777344 66.367188 32.253906 C 66.226562 32.402344 66.085938 32.554688 65.941406 32.707031 C 65.300781 33.363281 64.90625 33.710938 64.003906 33.941406 C 62.894531 33.660156 62.34375 33.011719 61.578125 32.191406 C 61.347656 31.953125 61.347656 31.953125 61.109375 31.707031 C 60.617188 31.199219 60.128906 30.6875 59.640625 30.171875 C 59.152344 29.660156 58.664062 29.152344 58.171875 28.644531 C 57.867188 28.328125 57.566406 28.011719 57.265625 27.691406 C 56.160156 26.542969 55.148438 25.886719 53.539062 25.640625 C 50.898438 25.636719 49.695312 26.667969 47.953125 28.609375 Z M 47.953125 28.609375 "/>
<path style=" stroke:none;fill-rule:nonzero;fill:rgb(95.686275%,85.882354%,35.686275%);fill-opacity:1;" d="M 63.796875 2.375 C 64.050781 2.375 64.304688 2.378906 64.566406 2.378906 C 67.605469 2.453125 70.027344 3.351562 72.25 5.5 C 72.496094 5.828125 72.746094 6.160156 73 6.5 C 67.058594 6.5 61.121094 6.5 55 6.5 C 56.417969 4.796875 56.417969 4.796875 57.578125 4.078125 C 57.910156 3.867188 57.910156 3.867188 58.246094 3.652344 C 60.117188 2.652344 61.671875 2.359375 63.796875 2.375 Z M 63.796875 2.375 "/>
<path style=" stroke:none;fill-rule:nonzero;fill:rgb(94.901961%,48.235294%,7.450981%);fill-opacity:1;" d="M 7.25 119.25 C 8.734375 119.25 10.21875 119.25 11.75 119.25 C 10.914062 120.296875 10.265625 120.941406 9.25 121.75 C 8.25 121.25 8.25 121.25 7.25 119.25 Z M 7.25 119.25 "/>
</g>
</svg>
