<?xml version="1.0" encoding="UTF-8"?>
<svg xmlns="http://www.w3.org/2000/svg" xmlns:xlink="http://www.w3.org/1999/xlink" width="128px" height="px" viewBox="0 0 128 128" version="1.1">
<g id="surface1">
<path style=" stroke:none;fill-rule:nonzero;fill:rgb(98.823529%,56.078434%,0.392157%);fill-opacity:1;" d="M 21 0 C 32.066406 -0.0234375 43.128906 -0.0390625 54.195312 -0.0507812 C 59.332031 -0.0585938 64.472656 -0.0625 69.609375 -0.0742188 C 74.5625 -0.0859375 79.515625 -0.09375 84.46875 -0.09375 C 86.363281 -0.0976562 88.257812 -0.101562 90.152344 -0.105469 C 92.796875 -0.113281 95.441406 -0.113281 98.082031 -0.113281 C 98.875 -0.117188 99.667969 -0.121094 100.480469 -0.125 C 105.886719 -0.113281 105.886719 -0.113281 107 1 C 107.089844 3.449219 107.117188 5.867188 107.097656 8.316406 C 107.097656 9.046875 107.09375 9.777344 107.09375 10.53125 C 107.085938 12.875 107.074219 15.21875 107.0625 17.5625 C 107.058594 19.148438 107.054688 20.734375 107.046875 22.320312 C 107.039062 26.210938 107.019531 30.105469 107 34 C 108.644531 34.191406 108.644531 34.191406 110.320312 34.382812 C 114.425781 35.070312 116.089844 36.089844 119 39 C 120.1875 42.5625 120.15625 45.804688 120.160156 49.511719 C 120.167969 50.65625 120.167969 50.65625 120.175781 51.824219 C 120.191406 54.347656 120.199219 56.875 120.203125 59.398438 C 120.207031 61.152344 120.214844 62.910156 120.21875 64.664062 C 120.230469 68.34375 120.238281 72.023438 120.242188 75.703125 C 120.246094 80.417969 120.269531 85.128906 120.296875 89.84375 C 120.316406 93.46875 120.320312 97.09375 120.324219 100.71875 C 120.328125 102.457031 120.335938 104.195312 120.347656 105.933594 C 120.363281 108.363281 120.363281 110.796875 120.355469 113.226562 C 120.367188 113.945312 120.375 114.660156 120.382812 115.398438 C 120.347656 119.773438 119.699219 122.53125 117 126 C 113.941406 128.039062 113.320312 128.253906 109.875 128.273438 C 109.039062 128.285156 108.199219 128.292969 107.335938 128.304688 C 106.417969 128.304688 105.503906 128.304688 104.558594 128.304688 C 103.589844 128.316406 102.625 128.324219 101.625 128.332031 C 98.421875 128.355469 95.214844 128.363281 92.007812 128.371094 C 89.78125 128.378906 87.554688 128.390625 85.332031 128.398438 C 80.660156 128.414062 75.992188 128.421875 71.324219 128.425781 C 65.339844 128.429688 59.355469 128.46875 53.371094 128.515625 C 48.773438 128.542969 44.175781 128.550781 39.574219 128.550781 C 37.371094 128.554688 35.164062 128.570312 32.957031 128.589844 C 29.871094 128.617188 26.785156 128.613281 23.699219 128.597656 C 22.789062 128.613281 21.875 128.628906 20.933594 128.644531 C 16.425781 128.59375 14.597656 128.472656 10.957031 125.585938 C 7.851562 121.480469 7.847656 118.59375 7.839844 113.601562 C 7.832031 112.835938 7.828125 112.074219 7.824219 111.289062 C 7.808594 108.757812 7.800781 106.230469 7.796875 103.699219 C 7.792969 101.941406 7.785156 100.1875 7.78125 98.429688 C 7.769531 94.742188 7.761719 91.058594 7.757812 87.371094 C 7.753906 82.648438 7.730469 77.929688 7.703125 73.207031 C 7.683594 69.578125 7.679688 65.949219 7.675781 62.320312 C 7.671875 60.578125 7.664062 58.839844 7.652344 57.097656 C 7.636719 54.660156 7.636719 52.226562 7.644531 49.789062 C 7.632812 49.070312 7.625 48.351562 7.617188 47.613281 C 7.652344 43.230469 8.324219 40.492188 11 37 C 14.414062 34.460938 15.640625 34 20 34 C 19.992188 32.5625 19.992188 32.5625 19.984375 31.09375 C 19.964844 27.542969 19.953125 23.988281 19.945312 20.4375 C 19.941406 18.898438 19.933594 17.359375 19.925781 15.824219 C 19.914062 13.613281 19.90625 11.40625 19.902344 9.195312 C 19.898438 8.503906 19.890625 7.816406 19.886719 7.105469 C 19.886719 2.226562 19.886719 2.226562 21 0 Z M 21 0 "/>
<path style=" stroke:none;fill-rule:nonzero;fill:rgb(99.215686%,99.607843%,99.607843%);fill-opacity:1;" d="M 26 5 C 51.078125 5 76.160156 5 102 5 C 102.289062 14.324219 102.578125 23.644531 102.875 33.25 C 103.003906 36.167969 103.128906 39.085938 103.261719 42.09375 C 103.757812 61.675781 103.757812 61.675781 99.019531 67.375 C 96.195312 70.050781 93.148438 72.101562 89.753906 73.980469 C 87.042969 75.558594 84.746094 77.585938 82.375 79.625 C 81.511719 80.328125 80.644531 81.03125 79.753906 81.753906 C 74.800781 85.792969 69.902344 89.902344 65 94 C 60.960938 92.636719 58.457031 90.859375 55.375 87.9375 C 51.894531 84.714844 48.375 81.613281 44.6875 78.625 C 43.835938 77.898438 42.980469 77.171875 42.101562 76.421875 C 39.074219 73.917969 39.074219 73.917969 35.628906 72.1875 C 31.496094 69.792969 28.289062 67.265625 26 63 C 23.777344 53.386719 24.792969 43.074219 25.1875 33.3125 C 25.457031 23.96875 25.722656 14.625 26 5 Z M 26 5 "/>
<path style=" stroke:none;fill-rule:nonzero;fill:rgb(3.137255%,16.862746%,45.490196%);fill-opacity:1;" d="M 21 0 C 32.066406 -0.0234375 43.128906 -0.0390625 54.195312 -0.0507812 C 59.332031 -0.0585938 64.472656 -0.0625 69.609375 -0.0742188 C 74.5625 -0.0859375 79.515625 -0.09375 84.46875 -0.09375 C 86.363281 -0.0976562 88.257812 -0.101562 90.152344 -0.105469 C 92.796875 -0.113281 95.441406 -0.113281 98.082031 -0.113281 C 98.875 -0.117188 99.667969 -0.121094 100.480469 -0.125 C 105.886719 -0.113281 105.886719 -0.113281 107 1 C 107.089844 3.449219 107.117188 5.867188 107.097656 8.316406 C 107.097656 9.046875 107.09375 9.777344 107.09375 10.53125 C 107.085938 12.875 107.074219 15.21875 107.0625 17.5625 C 107.058594 19.148438 107.054688 20.734375 107.046875 22.320312 C 107.039062 26.210938 107.019531 30.105469 107 34 C 108.644531 34.191406 108.644531 34.191406 110.320312 34.382812 C 114.425781 35.070312 116.089844 36.089844 119 39 C 120.1875 42.5625 120.15625 45.804688 120.160156 49.511719 C 120.167969 50.65625 120.167969 50.65625 120.175781 51.824219 C 120.191406 54.347656 120.199219 56.875 120.203125 59.398438 C 120.207031 61.152344 120.214844 62.910156 120.21875 64.664062 C 120.230469 68.34375 120.238281 72.023438 120.242188 75.703125 C 120.246094 80.417969 120.269531 85.128906 120.296875 89.84375 C 120.316406 93.46875 120.320312 97.09375 120.324219 100.71875 C 120.328125 102.457031 120.335938 104.195312 120.347656 105.933594 C 120.363281 108.363281 120.363281 110.796875 120.355469 113.226562 C 120.367188 113.945312 120.375 114.660156 120.382812 115.398438 C 120.347656 119.773438 119.699219 122.53125 117 126 C 113.941406 128.039062 113.320312 128.253906 109.875 128.273438 C 109.039062 128.285156 108.199219 128.292969 107.335938 128.304688 C 106.417969 128.304688 105.503906 128.304688 104.558594 128.304688 C 103.589844 128.316406 102.625 128.324219 101.625 128.332031 C 98.421875 128.355469 95.214844 128.363281 92.007812 128.371094 C 89.78125 128.378906 87.554688 128.390625 85.332031 128.398438 C 80.660156 128.414062 75.992188 128.421875 71.324219 128.425781 C 65.339844 128.429688 59.355469 128.46875 53.371094 128.515625 C 48.773438 128.542969 44.175781 128.550781 39.574219 128.550781 C 37.371094 128.554688 35.164062 128.570312 32.957031 128.589844 C 29.871094 128.617188 26.785156 128.613281 23.699219 128.597656 C 22.789062 128.613281 21.875 128.628906 20.933594 128.644531 C 16.425781 128.59375 14.597656 128.472656 10.957031 125.585938 C 7.851562 121.480469 7.847656 118.59375 7.839844 113.601562 C 7.832031 112.835938 7.828125 112.074219 7.824219 111.289062 C 7.808594 108.757812 7.800781 106.230469 7.796875 103.699219 C 7.792969 101.941406 7.785156 100.1875 7.78125 98.429688 C 7.769531 94.742188 7.761719 91.058594 7.757812 87.371094 C 7.753906 82.648438 7.730469 77.929688 7.703125 73.207031 C 7.683594 69.578125 7.679688 65.949219 7.675781 62.320312 C 7.671875 60.578125 7.664062 58.839844 7.652344 57.097656 C 7.636719 54.660156 7.636719 52.226562 7.644531 49.789062 C 7.632812 49.070312 7.625 48.351562 7.617188 47.613281 C 7.652344 43.230469 8.324219 40.492188 11 37 C 14.414062 34.460938 15.640625 34 20 34 C 19.992188 32.5625 19.992188 32.5625 19.984375 31.09375 C 19.964844 27.542969 19.953125 23.988281 19.945312 20.4375 C 19.941406 18.898438 19.933594 17.359375 19.925781 15.824219 C 19.914062 13.613281 19.90625 11.40625 19.902344 9.195312 C 19.898438 8.503906 19.890625 7.816406 19.886719 7.105469 C 19.886719 2.226562 19.886719 2.226562 21 0 Z M 26 5 C 25.691406 14.300781 25.382812 23.605469 25.0625 33.1875 C 24.925781 36.097656 24.789062 39.007812 24.648438 42.003906 C 23.820312 55.636719 23.820312 55.636719 29.203125 67.597656 C 32.242188 70.492188 35.523438 72.769531 39.144531 74.878906 C 41.933594 76.566406 44.28125 78.621094 46.75 80.75 C 48.5 82.167969 50.25 83.585938 52 85 C 54.066406 86.683594 56.125 88.375 58.1875 90.0625 C 59.109375 90.816406 60.03125 91.570312 60.980469 92.347656 C 61.648438 92.894531 62.3125 93.4375 63 94 C 66.851562 92.367188 69.761719 89.785156 72.875 87.0625 C 78.125 82.539062 83.484375 78.195312 88.976562 73.96875 C 90.046875 73.144531 91.101562 72.304688 92.148438 71.449219 C 94 70 94 70 96.054688 68.675781 C 99.503906 66.207031 101.671875 64.347656 102.703125 60.132812 C 102.925781 56.605469 102.898438 53.160156 102.78125 49.628906 C 102.773438 48.496094 102.765625 47.363281 102.757812 46.195312 C 102.714844 41.984375 102.601562 37.773438 102.5 33.5625 C 102.335938 24.136719 102.171875 14.710938 102 5 C 76.921875 5 51.839844 5 26 5 Z M 13 59 C 12.90625 66.753906 12.835938 74.507812 12.792969 82.261719 C 12.773438 85.863281 12.742188 89.464844 12.699219 93.0625 C 12.65625 96.539062 12.628906 100.015625 12.621094 103.488281 C 12.609375 105.460938 12.578125 107.429688 12.546875 109.398438 C 12.546875 110.601562 12.546875 111.800781 12.546875 113.039062 C 12.535156 114.09375 12.527344 115.152344 12.519531 116.242188 C 12.832031 119.058594 12.832031 119.058594 14.464844 121.339844 C 18.242188 123.8125 21.59375 123.558594 26.019531 123.515625 C 27.386719 123.527344 27.386719 123.527344 28.78125 123.539062 C 31.792969 123.554688 34.800781 123.542969 37.8125 123.53125 C 39.90625 123.535156 41.996094 123.539062 44.089844 123.542969 C 48.472656 123.546875 52.859375 123.539062 57.242188 123.523438 C 62.867188 123.5 68.488281 123.511719 74.109375 123.535156 C 78.429688 123.550781 82.75 123.546875 87.070312 123.535156 C 89.144531 123.53125 91.21875 123.535156 93.289062 123.546875 C 96.1875 123.554688 99.082031 123.539062 101.980469 123.515625 C 102.839844 123.527344 103.695312 123.535156 104.582031 123.542969 C 108.289062 123.488281 110.382812 123.402344 113.535156 121.339844 C 115.394531 118.367188 115.484375 116.535156 115.453125 113.039062 C 115.453125 111.238281 115.453125 111.238281 115.453125 109.398438 C 115.433594 108.105469 115.410156 106.816406 115.390625 105.484375 C 115.382812 104.144531 115.378906 102.804688 115.375 101.464844 C 115.359375 97.949219 115.320312 94.429688 115.273438 90.910156 C 115.234375 87.320312 115.214844 83.726562 115.195312 80.132812 C 115.152344 73.089844 115.085938 66.042969 115 59 C 112.214844 60.351562 109.996094 61.699219 107.679688 63.757812 C 107.066406 64.296875 106.453125 64.835938 105.824219 65.390625 C 105.179688 65.964844 104.539062 66.535156 103.875 67.125 C 98.855469 71.539062 93.785156 75.835938 88.53125 79.96875 C 85.425781 82.460938 82.402344 85.039062 79.375 87.625 C 71.488281 94.308594 71.488281 94.308594 68.4375 96.75 C 67.859375 97.21875 67.28125 97.6875 66.683594 98.171875 C 64.390625 99.300781 63.390625 98.804688 61 98 C 58.730469 96.21875 56.585938 94.417969 54.4375 92.5 C 53.175781 91.394531 51.914062 90.289062 50.652344 89.1875 C 49.71875 88.371094 49.71875 88.371094 48.769531 87.535156 C 46.390625 85.46875 43.949219 83.480469 41.5 81.5 C 36.035156 77.0625 30.695312 72.488281 25.359375 67.894531 C 24.539062 67.191406 24.539062 67.191406 23.703125 66.476562 C 22.492188 65.425781 21.289062 64.367188 20.09375 63.300781 C 19.46875 62.753906 18.84375 62.203125 18.203125 61.636719 C 17.636719 61.132812 17.070312 60.628906 16.488281 60.109375 C 15.042969 58.800781 15.042969 58.800781 13 59 Z M 13 59 "/>
<path style=" stroke:none;fill-rule:nonzero;fill:rgb(41.176471%,80.000001%,81.960785%);fill-opacity:1;" d="M 80 21 C 86.234375 25.726562 89.5625 31.683594 92 39 C 92.960938 48.222656 90.519531 55.996094 84.742188 63.210938 C 79.355469 68.742188 72.15625 72.246094 64.4375 72.5 C 56.59375 72.355469 49.902344 69.441406 44.019531 64.253906 C 38.648438 58.296875 36.449219 52.566406 36.5625 44.625 C 36.570312 43.867188 36.578125 43.113281 36.585938 42.335938 C 36.757812 36.753906 37.414062 32.449219 41 28 C 41.484375 27.378906 41.972656 26.757812 42.472656 26.117188 C 52.085938 15.253906 67.683594 13.765625 80 21 Z M 80 21 "/>
<path style=" stroke:none;fill-rule:nonzero;fill:rgb(96.078432%,77.254903%,31.37255%);fill-opacity:1;" d="M 13 59 C 16.0625 60.53125 17.839844 61.550781 20.285156 63.722656 C 20.894531 64.257812 21.5 64.792969 22.128906 65.34375 C 22.765625 65.910156 23.40625 66.476562 24.0625 67.0625 C 29.492188 71.839844 34.980469 76.492188 40.632812 81 C 43.238281 83.203125 45.617188 85.558594 48 88 C 40.105469 94.449219 32.199219 100.886719 24.1875 107.1875 C 23.609375 107.644531 23.027344 108.101562 22.429688 108.570312 C 20 110.476562 17.570312 112.285156 15 114 C 14.269531 116.5625 14.269531 116.5625 14 119 C 13.671875 119 13.339844 119 13 119 C 13 99.199219 13 79.398438 13 59 Z M 13 59 "/>
<path style=" stroke:none;fill-rule:nonzero;fill:rgb(96.078432%,77.254903%,31.37255%);fill-opacity:1;" d="M 115 59 C 115 78.800781 115 98.601562 115 119 C 114.671875 119 114.339844 119 114 119 C 113.796875 118.113281 113.59375 117.230469 113.382812 116.316406 C 111.695312 112.269531 109.324219 110.421875 105.875 107.9375 C 104.617188 106.992188 103.359375 106.042969 102.101562 105.09375 C 101.4375 104.597656 100.773438 104.101562 100.089844 103.589844 C 96.410156 100.789062 92.832031 97.859375 89.25 94.9375 C 88.558594 94.378906 87.867188 93.816406 87.15625 93.238281 C 82.257812 89.257812 82.257812 89.257812 80 87 C 87.433594 80.585938 94.890625 74.222656 102.519531 68.046875 C 105.574219 65.523438 108.519531 62.890625 111.441406 60.214844 C 113 59 113 59 115 59 Z M 115 59 "/>
<path style=" stroke:none;fill-rule:nonzero;fill:rgb(79.215688%,83.529413%,96.470588%);fill-opacity:1;" d="M 101 5 C 101.328125 5 101.660156 5 102 5 C 102.328125 12.355469 102.574219 19.707031 102.726562 27.066406 C 102.796875 30.484375 102.894531 33.898438 103.054688 37.3125 C 104.144531 61.210938 104.144531 61.210938 99.019531 67.375 C 96.195312 70.050781 93.148438 72.101562 89.753906 73.980469 C 87.042969 75.558594 84.746094 77.585938 82.375 79.625 C 81.511719 80.328125 80.644531 81.03125 79.753906 81.753906 C 74.800781 85.792969 69.902344 89.902344 65 94 C 60.960938 92.636719 58.457031 90.859375 55.375 87.9375 C 51.894531 84.714844 48.375 81.613281 44.6875 78.625 C 43.789062 77.886719 42.886719 77.144531 41.960938 76.382812 C 39.800781 74.644531 37.628906 72.964844 35.414062 71.304688 C 26.421875 64.394531 26.421875 64.394531 25.179688 60.300781 C 25.1875 57.8125 25.1875 57.8125 26 54 C 31.535156 58.015625 36.789062 62.308594 41.992188 66.742188 C 48.890625 72.625 55.914062 78.34375 63 84 C 66.917969 82.347656 69.890625 79.695312 73.0625 76.9375 C 74.226562 75.941406 75.386719 74.945312 76.550781 73.949219 C 77.128906 73.453125 77.710938 72.953125 78.308594 72.441406 C 89.457031 62.941406 89.457031 62.941406 93.207031 60.65625 C 98.113281 57.453125 98.113281 57.453125 100.832031 52.441406 C 101.136719 49.390625 101.167969 46.445312 101.097656 43.378906 C 101.105469 42.277344 101.117188 41.179688 101.125 40.046875 C 101.148438 36.550781 101.105469 33.058594 101.0625 29.5625 C 101.066406 27.183594 101.074219 24.808594 101.085938 22.429688 C 101.101562 16.621094 101.070312 10.8125 101 5 Z M 101 5 "/>
<path style=" stroke:none;fill-rule:nonzero;fill:rgb(93.725491%,97.647059%,98.039216%);fill-opacity:1;" d="M 55 38 C 56.8125 37.972656 58.625 37.953125 60.4375 37.9375 C 61.445312 37.925781 62.457031 37.914062 63.496094 37.902344 C 66 38 66 38 67 39 C 67.074219 41.863281 67.09375 44.699219 67.0625 47.5625 C 67.058594 48.367188 67.054688 49.175781 67.046875 50.007812 C 67.035156 52.003906 67.019531 54.003906 67 56 C 68.980469 56 70.960938 56 73 56 C 72.671875 57.648438 72.339844 59.300781 72 61 C 66.71875 61 61.441406 61 56 61 C 55.671875 59.351562 55.339844 57.699219 55 56 C 56.980469 56 58.960938 56 61 56 C 61 51.710938 61 47.421875 61 43 C 59.351562 43 57.699219 43 56 43 C 55.671875 41.351562 55.339844 39.699219 55 38 Z M 55 38 "/>
<path style=" stroke:none;fill-rule:nonzero;fill:rgb(94.901961%,36.470589%,31.764707%);fill-opacity:1;" d="M 107 40 C 112 40 112 40 113.8125 41.5 C 115.5 45.050781 116.050781 48.222656 115 52 C 112.964844 54.453125 110.6875 56.296875 108 58 C 107.671875 58 107.339844 58 107 58 C 107 52.058594 107 46.121094 107 40 Z M 107 40 "/>
<path style=" stroke:none;fill-rule:nonzero;fill:rgb(93.333334%,36.078432%,32.156864%);fill-opacity:1;" d="M 21 40 C 21 45.941406 21 51.878906 21 58 C 15 54 15 54 13 52 C 12.449219 45.160156 12.449219 45.160156 14.1875 41.5 C 16 40 16 40 21 40 Z M 21 40 "/>
<path style=" stroke:none;fill-rule:nonzero;fill:rgb(96.078432%,98.431373%,98.823529%);fill-opacity:1;" d="M 63 26 C 63.988281 26.328125 64.980469 26.660156 66 27 C 66 28.980469 66 30.960938 66 33 C 64.679688 33 63.359375 33 62 33 C 61.957031 31 61.960938 29 62 27 C 62.328125 26.671875 62.660156 26.339844 63 26 Z M 63 26 "/>
</g>
</svg>
